<?xml version="1.0" encoding="UTF-8"?>
<svg id="Capa_1" xmlns="http://www.w3.org/2000/svg" xmlns:xlink="http://www.w3.org/1999/xlink" viewBox="0 0 850.39 850.39">
  <defs>
    <style>
      .cls-1 {
        fill: #00d8c8;
      }

      .cls-1, .cls-2, .cls-3, .cls-4, .cls-5, .cls-6, .cls-7, .cls-8 {
        stroke-linecap: round;
      }

      .cls-1, .cls-2, .cls-3, .cls-4, .cls-5, .cls-6, .cls-7, .cls-8, .cls-9 {
        stroke-linejoin: round;
      }

      .cls-1, .cls-2, .cls-3, .cls-4, .cls-5, .cls-7, .cls-8, .cls-9 {
        stroke-width: 4px;
      }

      .cls-1, .cls-2, .cls-3, .cls-4, .cls-7, .cls-9 {
        stroke: #000;
      }

      .cls-2 {
        fill: none;
      }

      .cls-10 {
        fill: #afd7f4;
        stroke: #a74d96;
        stroke-miterlimit: 10;
        stroke-width: 3px;
      }

      .cls-3 {
        fill: url(#Degradado_sin_nombre_48);
      }

      .cls-4 {
        fill: url(#Degradado_sin_nombre_53);
      }

      .cls-5 {
        fill: #130049;
        stroke: #130049;
      }

      .cls-5, .cls-6 {
        opacity: .9;
      }

      .cls-6 {
        fill: #000b35;
        stroke: #000b35;
        stroke-width: 2px;
      }

      .cls-7 {
        fill: #ff0;
      }

      .cls-11 {
        fill: #f7d3e6;
      }

      .cls-8 {
        fill: #fff;
        stroke: #00d8c8;
      }

      .cls-9 {
        fill: #a30000;
        stroke-linecap: square;
      }
    </style>
    <linearGradient id="Degradado_sin_nombre_53" data-name="Degradado sin nombre 53" x1="681.96" y1="123.6" x2="681.96" y2="244.78" gradientUnits="userSpaceOnUse">
      <stop offset="0" stop-color="#d133aa"/>
      <stop offset=".76" stop-color="#572457"/>
    </linearGradient>
    <linearGradient id="Degradado_sin_nombre_48" data-name="Degradado sin nombre 48" x1="408.8" y1="506.73" x2="694.45" y2="506.73" gradientUnits="userSpaceOnUse">
      <stop offset="0" stop-color="#ffa350"/>
      <stop offset="1" stop-color="#ff5050"/>
    </linearGradient>
  </defs>
  <rect class="cls-11" x="-33.09" y="-36.94" width="920.57" height="920.57"/>
  <rect class="cls-1" x="180.54" y="88.86" width="488.93" height="123.09"/>
  <polygon class="cls-4" points="694.45 181.18 669.47 211.95 669.47 88.86 694.45 119.64 694.45 181.18"/>
  <path class="cls-6" d="M176.07,198.55c3.75-29.84,26.6-46.23,57.75-46.23,25.76,0,47.79,15.79,56.77,38.13,0,0,32.87-7.82,41.14,23.55"/>
  <path class="cls-8" d="M367.59,230.76c0,3.08-2.5,5.58-5.58,5.58h-30.22s-194.92,0-194.92,0c-.34,0-.62-.28-.61-.62.33-12.51,10.58-22.56,23.17-22.56,2.36,0,4.63.36,6.77,1.01.36.11.72-.12.77-.5,3.72-29.84,29.15-52.93,60-52.93,25.5,0,47.31,15.79,56.2,38.13.13.33.51.47.83.31,4.89-2.51,10.43-3.92,16.3-3.92,17.17,0,31.52,12.09,34.99,28.23.06.28.3.48.58.48h25.55c3.42,0,6.19,2.77,6.19,6.19v.61Z"/>
  <polygon class="cls-3" points="651.96 260.05 408.8 775.71 450.14 760.56 694.45 237.75 651.96 260.05"/>
  <line class="cls-2" x1="462.59" y1="733.91" x2="420.97" y2="749.85"/>
  <line class="cls-2" x1="505.35" y1="641.19" x2="464.09" y2="658.59"/>
  <line class="cls-2" x1="518.83" y1="612.1" x2="477.57" y2="629.5"/>
  <line class="cls-2" x1="531.11" y1="583.12" x2="489.85" y2="600.52"/>
  <line class="cls-2" x1="542.93" y1="558.39" x2="501.67" y2="575.79"/>
  <line class="cls-2" x1="586.02" y1="469.67" x2="543.01" y2="487.07"/>
  <line class="cls-2" x1="599.87" y1="439.12" x2="557.38" y2="457.03"/>
  <line class="cls-2" x1="617.81" y1="400.22" x2="576.55" y2="417.62"/>
  <line class="cls-2" x1="632.29" y1="370.88" x2="589.81" y2="388.79"/>
  <line class="cls-2" x1="647.32" y1="337.18" x2="604.51" y2="358.43"/>
  <line class="cls-2" x1="679.74" y1="269.01" x2="638.31" y2="290.06"/>
  <line class="cls-2" x1="663.14" y1="302.8" x2="622.82" y2="323.84"/>
  <line class="cls-2" x1="673.09" y1="249.43" x2="429.45" y2="768.14"/>
  <line class="cls-2" x1="570.77" y1="500.27" x2="527.77" y2="517.67"/>
  <line class="cls-2" x1="556.07" y1="530.88" x2="513.06" y2="548.28"/>
  <line class="cls-2" x1="490.57" y1="674.18" x2="447.51" y2="688.68"/>
  <line class="cls-2" x1="475.33" y1="704.97" x2="435.44" y2="719.21"/>
  <polygon class="cls-7" points="486.99 260.05 651.96 260.05 408.8 775.71 226.09 775.71 486.99 260.05"/>
  <polygon class="cls-9" points="694.45 237.75 527.67 237.75 486.99 260.05 651.91 260.05 694.45 237.75"/>
  <g>
    <g>
      <path class="cls-10" d="M567.4,314.25h9.62c1.74,0,3.15,1.41,3.15,3.15v28.23h-15.91v-28.23c0-1.74,1.41-3.15,3.15-3.15Z" transform="translate(181.92 -202.94) rotate(23.81)"/>
      <path class="cls-10" d="M538.92,378.78h9.62c1.74,0,3.15,1.41,3.15,3.15v28.23h-15.91v-28.23c0-1.74,1.41-3.15,3.15-3.15Z" transform="translate(205.55 -185.95) rotate(23.81)"/>
    </g>
    <g>
      <path class="cls-10" d="M486.95,472.43h9.62c1.74,0,3.15,1.41,3.15,3.15v28.23h-15.91v-28.23c0-1.74,1.41-3.15,3.15-3.15Z" transform="translate(238.93 -156.99) rotate(23.81)"/>
      <path class="cls-10" d="M458.47,536.96h9.62c1.74,0,3.15,1.41,3.15,3.15v28.23h-15.91v-28.23c0-1.74,1.41-3.15,3.15-3.15Z" transform="translate(262.56 -140) rotate(23.81)"/>
    </g>
    <g>
      <path class="cls-10" d="M415.13,634.4h9.62c1.74,0,3.15,1.41,3.15,3.15v28.23h-15.91v-28.23c0-1.74,1.41-3.15,3.15-3.15Z" transform="translate(298.21 -114.21) rotate(23.81)"/>
      <path class="cls-10" d="M386.65,698.93h9.62c1.74,0,3.15,1.41,3.15,3.15v28.23h-15.91v-28.23c0-1.74,1.41-3.15,3.15-3.15Z" transform="translate(321.84 -97.22) rotate(23.81)"/>
    </g>
  </g>
  <g>
    <g>
      <path class="cls-10" d="M498.12,292.67h9.62c1.74,0,3.15,1.41,3.15,3.15v28.23h-15.91v-28.23c0-1.74,1.41-3.15,3.15-3.15Z" transform="translate(167.31 -176.81) rotate(23.81)"/>
      <path class="cls-10" d="M469.64,357.21h9.62c1.74,0,3.15,1.41,3.15,3.15v28.23h-15.91v-28.23c0-1.74,1.41-3.15,3.15-3.15Z" transform="translate(190.94 -159.81) rotate(23.81)"/>
    </g>
    <g>
      <path class="cls-10" d="M417.67,450.86h9.62c1.74,0,3.15,1.41,3.15,3.15v28.23h-15.91v-28.23c0-1.74,1.41-3.15,3.15-3.15Z" transform="translate(224.33 -130.86) rotate(23.81)"/>
      <path class="cls-10" d="M389.19,515.39h9.62c1.74,0,3.15,1.41,3.15,3.15v28.23h-15.91v-28.23c0-1.74,1.41-3.15,3.15-3.15Z" transform="translate(247.96 -113.87) rotate(23.81)"/>
    </g>
    <g>
      <path class="cls-10" d="M345.85,612.83h9.62c1.74,0,3.15,1.41,3.15,3.15v28.23h-15.91v-28.23c0-1.74,1.41-3.15,3.15-3.15Z" transform="translate(283.61 -88.07) rotate(23.81)"/>
      <path class="cls-10" d="M317.38,677.36h9.62c1.74,0,3.15,1.41,3.15,3.15v28.23h-15.91v-28.23c0-1.74,1.41-3.15,3.15-3.15Z" transform="translate(307.24 -71.08) rotate(23.81)"/>
    </g>
  </g>
  <path class="cls-8" d="M669.75,379.64c0,1.57,1.28,2.85,2.85,2.85h15.43s99.54,0,99.54,0c.17,0,.32-.14.31-.32-.17-6.39-5.4-11.52-11.83-11.52-1.2,0-2.36.18-3.46.52-.18.06-.37-.06-.39-.25-1.9-15.24-14.89-27.03-30.64-27.03-13.02,0-24.16,8.07-28.7,19.47-.07.17-.26.24-.42.16-2.5-1.28-5.33-2-8.32-2-8.77,0-16.1,6.18-17.87,14.42-.03.14-.15.24-.3.24h-13.05c-1.75,0-3.16,1.41-3.16,3.16v.31Z"/>
  <path class="cls-5" d="M335.19,557.05s2.53-1.22,8.12-.6c10.55,1.17,19.2,9.86,19.2,22.03v3.35h-38.16s4.93-8.87,4.93-8.87"/>
  <path class="cls-8" d="M322.31,577.15h35c0-9.67-7.84-17.5-17.5-17.5-.77,0-1.52.07-2.26.16-3-5.32-8.7-8.91-15.24-8.91-3.74,0-7.21,1.19-10.05,3.19-4.03-20.02-21.71-35.09-42.91-35.09-21.97,0-40.15,16.18-43.29,37.27-2.25-.77-4.66-1.2-7.16-1.2-12.2,0-22.08,9.89-22.08,22.08h44.16s81.34,0,81.34,0Z"/>
</svg>