<?xml version="1.0" encoding="UTF-8"?>
<svg id="Capa_1" xmlns="http://www.w3.org/2000/svg" viewBox="0 0 850.39 850.39">
  <defs>
    <style>
      .cls-1, .cls-2, .cls-3, .cls-4, .cls-5 {
        stroke: #000;
        stroke-width: 4px;
      }

      .cls-1, .cls-3 {
        stroke-linecap: round;
        stroke-linejoin: round;
      }

      .cls-2 {
        fill: #ff0e8e;
      }

      .cls-2, .cls-4, .cls-5 {
        stroke-miterlimit: 10;
      }

      .cls-6 {
        fill: #50f4fc;
      }

      .cls-3 {
        fill: #ffed00;
      }

      .cls-5 {
        fill: none;
      }
    </style>
  </defs>
  <rect class="cls-6" x="-25.05" y="-30.95" width="906.27" height="906.27"/>
  <path class="cls-5" d="M676.12,404.12c0,205.67-166.73,372.4-372.4,372.4"/>
  <line class="cls-5" x1="676.12" y1="404.12" x2="676.12" y2="280.45"/>
  <ellipse class="cls-4" cx="295.39" cy="683.02" rx="102.43" ry="93.74"/>
  <circle class="cls-2" cx="287.52" cy="683.71" r="93.22"/>
  <path class="cls-3" d="M463.52,493.05c117.41,0,212.6-95.18,212.6-212.6s-95.18-212.6-212.6-212.6v425.2Z"/>
  <path class="cls-1" d="M428.09,67.85c-117.41,0-212.6,95.18-212.6,212.6,0,117.41,95.18,212.6,212.6,212.6l18.23-15.65-.23-399.32-18-10.22Z"/>
  <path class="cls-3" d="M428.09,493.05c-117.41,0-212.6-95.18-212.6-212.6,0-117.41,95.18-212.6,212.6-212.6v212.6s0,212.6,0,212.6Z"/>
  <line class="cls-5" x1="303.72" y1="776.52" x2="298.9" y2="776.52"/>
</svg>