<?xml version="1.0" encoding="UTF-8"?>
<svg id="Capa_1" xmlns="http://www.w3.org/2000/svg" xmlns:xlink="http://www.w3.org/1999/xlink" viewBox="0 0 850.39 850.39">
  <defs>
    <style>
      .cls-1 {
        fill: #dda6f7;
      }

      .cls-2 {
        fill: #f6da57;
      }

      .cls-3 {
        fill: url(#Degradado_sin_nombre_2);
        stroke-linecap: round;
        stroke-linejoin: round;
      }

      .cls-3, .cls-4, .cls-5 {
        stroke: #000;
        stroke-width: 4px;
      }

      .cls-6 {
        fill: #ffa200;
      }

      .cls-4 {
        fill: #011f33;
      }

      .cls-4, .cls-7, .cls-5 {
        stroke-miterlimit: 10;
      }

      .cls-8 {
        fill: #6c3111;
      }

      .cls-7 {
        stroke: red;
        stroke-width: 9px;
      }

      .cls-7, .cls-5 {
        fill: none;
      }
    </style>
    <linearGradient id="Degradado_sin_nombre_2" data-name="Degradado sin nombre 2" x1="167.46" y1="188.76" x2="830.86" y2="188.76" gradientUnits="userSpaceOnUse">
      <stop offset="0" stop-color="#ce006d"/>
      <stop offset=".17" stop-color="#d41164"/>
      <stop offset=".51" stop-color="#e4404e"/>
      <stop offset=".98" stop-color="#fd8b2b"/>
      <stop offset="1" stop-color="#ff8f2a"/>
    </linearGradient>
  </defs>
  <rect class="cls-1" x="-29.72" y="-29.67" width="909.74" height="909.74"/>
  <g>
    <path class="cls-6" d="M426.6,779.38v-236.36l-167.13,167.13c42.77,42.77,101.86,69.23,167.13,69.23Z"/>
    <path class="cls-6" d="M259.47,710.15l167.13-167.13h-236.36c0,60.49,23.08,120.98,69.23,167.13Z"/>
    <path class="cls-6" d="M662.97,543.03h-236.36s0,0,0,0h0,0v236.35c65.27,0,124.36-26.45,167.13-69.23h0c46.15-46.15,69.23-106.64,69.23-167.13Z"/>
  </g>
  <path class="cls-3" d="M426.59,70.85c-65.27,0-124.36,25.84-167.13,68.61l.04.04c-46.15,46.14-69.24,106.61-69.26,167.1l236.35.07h236.35s0-235.82,0-235.82c0,0-239.43,0-236.35,0Z"/>
  <path class="cls-7" d="M479.53,543.04c0,29.19-23.67,52.86-52.87,52.86s-52.87-23.67-52.87-52.86"/>
  <path class="cls-7" d="M538.69,543.04c0,61.86-50.16,112.01-112.03,112.01s-112.03-50.15-112.03-112.01"/>
  <path class="cls-7" d="M605.48,543.04c0,98.74-80.06,178.79-178.82,178.79s-178.82-80.05-178.82-178.79"/>
  <path class="cls-7" d="M660.03,544.69c0,128.12-104.51,231.98-233.44,231.98s-233.44-103.86-233.44-231.98"/>
  <path class="cls-8" d="M593.31,375.9h0c-43.04-42.77-102.49-69.23-168.17-69.23v236.35h237.82c0-65.27-26.62-124.36-69.66-167.13Z"/>
  <rect class="cls-4" x="190.31" y="306.6" width="234.9" height="236.49"/>
  <path class="cls-2" d="M489.27,449.53c.17,1.17-.58,2.13-1.62,2.58s-2.02.3-3.01-.27c-2.32-1.35-3.88-4.11-3.77-6.8s1.68-5.19,4.2-6.03c2.83-.95,6.03.66,8.31,2.26,2.41,1.69,4.35,4.1,5,7.02s-.05,6.35-1.63,8.98c-2.52,4.19-7.29,6.72-12.15,6.7-10.37-.05-17.01-12.78-14.09-21.95,1.66-5.2,6.16-9.24,11.4-10.65,6.13-1.64,12.95-.01,18.27,3.27,2.79,1.72,4.89,4.06,6.42,6.96s2.67,6.1,3.25,9.34.51,6.35-.45,9.39c-.83,2.64-2.31,5.02-4.16,7.06-4.16,4.57-9.83,7.07-15.55,9.08s-11.87,3.9-17.3,7.1c-4.98,2.93-9.47,6.75-12.76,11.53s-5.27,10.53-5.54,16.39,1.19,12.22,4.74,17.13c1.74,2.41,4.04,4.38,6.82,5.48s5.82,1.38,8.73.84c5.72-1.07,9.99-5.45,12.44-10.54,1.36-2.83,2.4-6.04,1.67-9.19-.64-2.78-2.55-5.13-4.71-6.9-4.44-3.64-11.52-6.22-16.73-2.61-4.62,3.2-4.29,10.75.95,13.13,2.13.96,4.9,1.15,6.79-.41.31-.26-.44-.57-.59-.62-.35-.11-.94-.23-1.26.03-1.93,1.59-4.42.71-5.83-1.11-1.73-2.23-1.8-5.61-.45-8.04s4.32-3.9,7.12-3.83c3.12.08,6.19,1.77,8.52,3.76s4.17,4.54,4.43,7.58c.28,3.2-1.06,6.47-2.61,9.2-2.83,5.01-7.85,9.19-13.88,8.92-6.42-.28-10.58-5.9-12.6-11.48s-2.1-12.16-.44-18.04c3.3-11.71,13.27-19.73,24.2-24.1,6.27-2.51,12.98-4.02,18.89-7.39,4.78-2.72,9.04-6.77,10.9-12.05,2.18-6.18.49-13.12-2.31-18.82-1.42-2.88-3.34-5.37-5.96-7.26s-5.72-3.24-8.82-4.14c-5.87-1.71-12.52-1.81-17.93,1.34-4.63,2.7-7.93,7.44-8.28,12.85-.33,5.09,1.65,10.3,5.06,14.05s8.76,5.97,14.01,5.49c4.97-.45,9.65-3.15,12.04-7.61,1.48-2.76,2.04-6.08,1.22-9.13-.76-2.81-2.71-5.12-5.02-6.82-4.32-3.18-12.18-5.64-15.4.27-2.71,4.99,1.41,11.56,6.98,11.79,2.12.09,4.79-1.05,4.43-3.57-.08-.53-2.03-.81-1.93-.17h0Z"/>
  <path class="cls-2" d="M439.82,467.79c-.22.88.59,1.64,1.35,1.9.81.32,1.71-.06,2.28-.65,2.32-2.61.5-7.45-3.1-7.45-3.93-.18-4.59,4.65-3.06,7.42,2.26,4.92,9.35,5.18,11.25-.21,1.21-3.03.67-6.68-1.37-9.22-1.89-2.45-5.31-4.31-8.35-3.13-6.2,2.75-6.78,11.69-3.64,16.99,3.25,5.82,10.8,8.82,15.83,3.34,8.34-9.61,2.81-27.7-.7-38.63-2.13-6.5-4.49-13-6.16-19.73-4.92-20.19-6.1-40.85-7.41-61.48-.51-10.32.43-20.94,4.04-30.72,1.35-3.26,1.88-6.91,4.51-9.53,1.48-1.3,3.6-1.25,5.38-1.03,3.44.33,7.48,1.24,9.36,4.52,1.93,3.24.95,7.17-.49,10.34-.79,1.52-1.41,3.73-3.33,4.14-3.78.34-6.62-3.62-6.81-7.07-.08-1.76.45-3.62,1.73-4.9,1.94-2.08,5.81-1.38,6.41,1.56.53,1.81-.51,4.02-2.63,3.2-.82-.29-1.52-.82-2.19-1.34.69.5,1.4,1.01,2.22,1.27,2.04.75,2.94-1.4,2.39-3.07-.6-2.62-4.19-3.3-5.89-1.33-2.33,2.49-1.79,6.65.45,9.04,1.03,1.11,2.64,2.19,4.18,1.9,1.54-.4,2.03-2.44,2.69-3.75,2.13-4.47,2.15-10.5-3.31-12.36-1.53-.58-3.2-.81-4.89-.97-1.67-.17-3.35-.2-4.44.8-1.12.99-1.73,2.6-2.31,4.18-1.76,4.79-3.37,9.69-4.29,14.7-2.38,13.49-.56,27.28.5,40.86,1.19,13.66,2.7,27.32,6.09,40.55,3.92,17.29,15.59,37.71,9.13,55.49-4.39,10.46-15.95,10.38-21.37.78-3.47-6.07-2.56-15.93,4.53-18.92,3.63-1.34,7.52.75,9.68,3.63,3.33,4.19,2.93,11.72-2.29,14.2-3.44,1.51-7.65-.44-9.07-3.81-1.62-3.17-.71-8.33,3.66-8.11,3.87.06,5.75,5.26,3.19,7.97-.62.61-1.58.97-2.41.61-.77-.29-1.57-1.09-1.32-1.97h0Z"/>
  <path class="cls-2" d="M465.36,392.55c2.61,2.23,6.1,2.89,9.4,2.11s6.32-2.98,8.47-5.66c2.28-2.85,3.82-6.5,4.06-10.16.26-3.97-1.39-7.45-4.24-10.15-5.16-4.88-13.22-5.78-19.07-1.56s-8.7,11.92-9.29,18.86c-.35,4.15-.05,8.67,2.23,12.27,1.97,3.1,5.18,5.28,8.63,6.41,7.81,2.55,15.95-.27,23.5-2.37,4.21-1.17,8.41-2.07,12.8-2.12s9.03.55,13.46,1.4c6.63,1.27,13.16,3.27,19.17,6.39,6.46,3.36,12.2,8.01,16.69,13.76,4.86,6.22,8.17,13.52,10.28,21.1,4.49,16.16,3.97,33.57-.48,49.68-2.2,7.97-5.38,15.68-9.46,22.88-1.94,3.43-4.07,6.79-6.51,9.9s-5.11,5.93-8.55,7.7c-2.65,1.37-5.48,1.71-8.34.86s-5.42-2.61-7.44-4.77c-4.77-5.11-6.47-12.31-5.93-19.14.47-5.97,2.79-13.1,8.49-16.02,5.73-2.94,12.85.41,16.19,5.44,1.67,2.51,2.22,5.39,1.55,8.33s-2.29,5.65-4.27,7.89c-1.61,1.83-3.9,3.92-6.41,4.32s-3.69-2.49-4.26-4.34c-1.12-3.62-1.13-7.58-.86-11.32.04-.53-1.96-.6-2,0-.28,3.88-.26,8,.99,11.73.8,2.39,2.25,4.46,4.92,4.74,2.53.26,4.95-.9,6.9-2.41,2.39-1.85,4.36-4.31,5.69-7.02,1.26-2.57,2.01-5.54,1.33-8.38s-2.59-5.39-4.9-7.23c-4.94-3.95-12.46-5.13-17.86-1.39s-7.28,10.54-7.57,16.6c-.33,6.83,1.6,13.97,6.52,18.91,4.16,4.17,10.32,6.54,16.13,4.8,3.48-1.04,6.39-3.34,8.87-5.92,2.82-2.94,5.15-6.32,7.28-9.77,8.82-14.25,14.08-30.85,14.93-47.6.43-8.43-.24-16.95-2.16-25.18-1.8-7.72-4.71-15.27-9.19-21.85-4.2-6.17-9.75-11.35-16.16-15.16-5.92-3.52-12.45-5.9-19.14-7.46-8.34-1.95-17.19-3.1-25.68-1.49-4.12.78-8.11,2.1-12.16,3.17s-7.97,1.92-12.01,1.44-7.7-2.37-10.18-5.44c-2.79-3.44-3.35-7.91-3.14-12.21.35-7.19,3.18-15.5,9.35-19.75,2.95-2.03,6.57-2.72,10-1.57s6.88,4.08,8.42,7.54c1.65,3.7.93,8.08-.73,11.64-1.57,3.37-4.15,6.41-7.5,8.11-1.38.7-2.94,1.18-4.5,1.1-1.73-.1-3.28-.92-4.58-2.03-.4-.34-2.31-.09-1.73.4h0Z"/>
  <path class="cls-2" d="M631.11,513.1c1.68-.48,3.31,1.61,2.55,3.2-.36.78-1.11,1.31-1.9,1.58-4.69,1.61-8.03-4.56-5.36-8.23,2.15-2.87,6.42-3.07,9.39-1.42,6.61,3.5,4.14,15.65-3.57,15.59-5.02-.44-10.57-2.56-12.86-7.37-2.18-4.92.05-10.94,4.34-13.97,7.04-4.82,18.24-3.31,23.57,3.4,2.94,4.44,2.28,10.06,1.75,15.06-3.27,18.76-22.64,11.98-32.32,2.41-8.53-8.11-13.54-18.7-20.21-28.14-.83-1.19-2.17-2.88-2.82-4.16-5.99-11.81-9.88-24.45-14.98-36.63-7.49-18.09-15.6-36.5-28.92-51.11-4.48-4.77-9.7-8.97-15.76-11.55,12.42,4.94,21.19,15.88,28.32,26.77,10.59,16.77,17.94,35.26,25.15,53.64,2.79,6.72,5.06,13.88,9.05,19.96,1.46,1.94,2.96,4.1,4.28,6.11,8.48,13.06,17.18,29.59,33.86,32.59,6.97,1.04,11.64-3.36,12.58-10.19.5-4.48,1.17-9.81-1.38-13.75-4.77-5.96-14.94-7.35-21.27-3.16-3.76,2.55-5.85,7.87-4,12.17,1.96,4.31,7.23,6.33,11.67,6.78,4.92.14,7.57-6.11,6.03-10.27-2.02-6.71-14.12-5.95-12.12,2.04.75,3.24,5.44,4.84,7.37,1.78.76-1.43-.72-3.56-2.41-3.13h0Z"/>
  <path class="cls-2" d="M464.91,417.4c29.09-13.91,61.4-.49,68.67,31.69,2.23,9.51,1.4,19.53-1.61,28.62,2.25-9.27,2.52-19.04.09-28.26-8.24-31.24-37.91-43.21-67.15-32.05h0Z"/>
  <path class="cls-2" d="M501.63,352.64c.9,3.28-1.76,6.31-5.12,5.89-5.1-.71-9.44-4.46-12.26-8.61-4.99-8.31,3.19-11.04,10.01-8.01,3.82,1.55,7.59,3.3,10.74,6.03,4.7,3.97,7.4,12.09,2.68,17.07-8.57,7.54-21.26.64-28.11-6.09-2.98-2.93-5.64-6.54-6.28-10.81-.89-6.36,2.1-13.16,7.37-16.82,7.43-4.69,16.63-1.24,24.41.52,3.96,1.05,7.88,2.29,11.7,3.82,3.82,1.53,7.53,3.39,11.02,5.61,6.98,4.44,12.67,10.61,17.74,17.05,7.65,9.58,14.44,19.89,19.94,30.84,3.73,7.26,7.12,14.66,10.89,21.83,5.63,10.72,12.25,21.04,21.06,29.4,4.95,4.37,13.43,12.42,20.36,8.95,5.79-4.36-3.59-16.8-8.77-18.36-2.6-1.13-6.2-.55-7.31,2.3-1.51,4.48,3.44,10.2,7.95,10.26,2.48-.11,2.05-2.94.79-4.33-1.28-1.5-3.37-2.31-5.35-2.06,0,0,.08-.07.08-.07-.15.59.03,1.24.32,1.79.59,1.1,1.77,1.95,3.06,1.9.63-.02,1.29-.32,1.58-.9-1.66,2.48-5.68-.29-5.14-2.83,1.92-.52,4.35.44,5.71,1.96.99,1.14,1.78,3.16.52,4.4-2.33,1.6-5.37-.29-7.15-1.86-3.06-2.6-5.15-8.4-.96-10.99,7.61-4.12,16.47,7.01,17.55,13.82.93,5.49-3.69,7.93-8.54,6.89-2.11-.41-4.04-1.28-5.85-2.3-7.09-4.31-13.02-10.12-18.18-16.49-10.36-12.74-16.78-28-24.22-42.44-5.5-10.85-12.24-20.98-19.85-30.45-5.01-6.28-10.47-12.29-17.25-16.65-3.36-2.16-6.95-3.98-10.68-5.48-3.72-1.51-7.57-2.74-11.47-3.79-7.28-1.65-16.17-5.07-22.96-.84-4.64,3.17-7.46,9.46-6.66,15.09.97,5.9,5.63,10.33,10.25,13.83,4.75,3.39,10.63,6.06,16.53,4.97,6.71-1.12,8.78-7.52,6.05-13.26-2.56-5.54-8.51-8.38-13.85-10.7-6.01-2.82-13.86-.95-9.26,6.95,2.66,4.09,6.89,7.85,11.83,8.66,3.31.5,5.88-2.46,5.1-5.67h0Z"/>
  <path class="cls-5" d="M593.31,375.9h0c-43.04-42.77-102.49-69.23-168.17-69.23v236.35h237.82c0-65.27-26.62-124.36-69.66-167.13Z"/>
</svg>