<?xml version="1.0" encoding="UTF-8"?>
<svg id="Capa_1" xmlns="http://www.w3.org/2000/svg" xmlns:xlink="http://www.w3.org/1999/xlink" viewBox="0 0 850.39 850.39">
  <defs>
    <style>
      .cls-1 {
        fill: #dda6f7;
      }

      .cls-2 {
        fill: #f6da57;
      }

      .cls-3 {
        fill: url(#Degradado_sin_nombre_2);
        stroke-linecap: round;
        stroke-linejoin: round;
        stroke-width: 4px;
      }

      .cls-3, .cls-4 {
        stroke: #000;
      }

      .cls-5 {
        fill: #ffa200;
      }

      .cls-6 {
        fill: #6c3111;
      }

      .cls-7 {
        stroke-width: 9px;
      }

      .cls-7, .cls-8 {
        fill: none;
        stroke: red;
      }

      .cls-7, .cls-8, .cls-4 {
        stroke-miterlimit: 10;
      }

      .cls-8 {
        stroke-width: 8px;
      }

      .cls-9 {
        fill: #ffec00;
      }
    </style>
    <linearGradient id="Degradado_sin_nombre_2" data-name="Degradado sin nombre 2" x1="172.56" y1="687.23" x2="703.89" y2="689.89" gradientUnits="userSpaceOnUse">
      <stop offset="0" stop-color="#ce006d"/>
      <stop offset=".17" stop-color="#d41164"/>
      <stop offset=".51" stop-color="#e4404e"/>
      <stop offset=".98" stop-color="#fd8b2b"/>
      <stop offset="1" stop-color="#ff8f2a"/>
    </linearGradient>
  </defs>
  <rect class="cls-1" x="-20.15" y="-19.55" width="891.5" height="891.5"/>
  <path class="cls-6" d="M626.38,522.37c48.5-48.08,80.27-114.5,80.27-187.86h-267.99s187.71,187.86,187.71,187.86Z"/>
  <path class="cls-2" d="M443.87,335.74c14.47,4.85,29.54,10.32,40.31,21.64,3.59,3.74,6.51,8.03,9.3,12.32,5.46,8.59,11.12,17.08,18.42,24.19,6.44,6.22,23.72,20.49,30.94,9.29,1.2-2.02,1.76-4.45,2.02-6.9.31-4.84.77-10.51-3.15-13.45-5.4-4.39-15.07-4.8-19.29,1.39-2.77,3.88-2.52,9.8,1.68,12.6,1.94,1.39,4.41,2.32,6.75,2.67,2.46.42,4.46-1.28,5.44-3.42,1.55-3.16.96-7.7-2.27-9.55-2.04-1.18-4.94-1.21-6.74.43-2.83,2.4-1.21,8.4,2.84,8.06,2.01-.07,3.53-2.18,2.01-3.86-.41-.47-1.07-.76-1.7-.58,1.33-.4,2.52,1.04,2.47,2.31-.08,1.39-1.46,2.31-2.75,2.44-2.85.38-4.93-2.55-4.82-5.18-.11-2.82,2.44-5.13,5.19-5.21,6.26-.46,9.27,6.47,6.79,11.62-.83,1.85-2.4,3.63-4.49,4.1-3.38.51-6.74-.92-9.54-2.69-4.88-3.13-5.42-10.13-2.25-14.67,3.04-4.69,9.29-6.25,14.52-5.17,5.29.93,10.74,4.72,11.17,10.48.76,7.45.08,18.41-8.83,20.47-9.55,1.75-20.81-7.68-27.28-13.88-7.36-7.29-13.17-15.93-18.43-24.66-11.23-19.85-27.86-27.13-48.32-34.78h0Z"/>
  <path class="cls-2" d="M572.52,425.73c2.44.91,1.63,4.7.4,6.24-1.69,2.12-4.68,3.24-7.25,2.16s-4.42-4.11-4.53-6.97c-.13-3.41,2.05-6.37,4.53-8.48s5.87-4.01,9.24-3.45c3.1.52,5.7,2.81,7.43,5.32,3.24,4.71,3.74,10.96,2,16.33s-5.96,9.8-11.59,11.12c-5.32,1.24-11.19-.4-15.03-4.31-4.56-4.63-6.17-11.6-5.24-17.9.98-6.66,4.74-12.74,9.65-17.24,2.59-2.38,5.6-4.43,9.12-5.08s7.13-.21,10.47.63,6.41,2.34,8.94,4.63c2.31,2.09,4.02,4.8,5.22,7.66,2.67,6.38,2.79,13.44,2.18,20.23-.69,7.7-2.09,15.31-1.87,23.07.2,7.09,1.5,14.22,4.43,20.71,2.62,5.8,6.63,10.94,11.81,14.66s11.2,5.77,17.45,5.52c3.44-.14,6.95-.98,9.78-3.02,2.51-1.81,4.35-4.44,5.44-7.32,2.39-6.34,1-13.3-2.38-19.01-1.69-2.86-3.91-5.86-6.89-7.48s-6.73-1.55-9.96-.4c-6.11,2.18-11.81,7.96-11.52,14.81.13,3.13,1.62,6.12,4.35,7.76,2.54,1.53,5.92,1.81,8.52.26,2.33-1.38,3.83-4.19,3.29-6.9-.12-.62-2.1-.48-2,0,.57,2.83-1.17,5.97-3.93,6.92s-5.76-1.37-7.06-3.67c-1.72-3.05-1.47-6.98,0-10.07s3.98-5.45,6.85-7.16,6.62-2.86,9.82-1.1c3,1.65,5.21,4.78,6.86,7.7,3.37,5.93,4.53,13.28,1.48,19.6-1.38,2.85-3.56,5.35-6.43,6.76-3.05,1.49-6.55,1.79-9.88,1.36-6.17-.78-11.87-4.13-16.21-8.49-4.86-4.87-8.09-11.1-9.88-17.71-1.91-7.02-2.29-14.39-1.73-21.61.61-7.94,2.31-15.84,1.93-23.84-.3-6.26-1.96-12.85-6.08-17.73-4.53-5.36-11.51-7.47-18.31-7.8-3.78-.19-7.49.37-10.82,2.22-2.99,1.66-5.6,4.09-7.8,6.68-4.31,5.06-7.18,11.53-7.07,18.26.1,6.24,2.71,12.68,7.95,16.32,4.77,3.31,11.19,4.13,16.72,2.46s9.66-6,11.44-11.5,1.22-11.63-1.96-16.38c-1.77-2.64-4.33-4.8-7.41-5.71-3.39-1-7.01-.27-10.05,1.41s-5.72,4.14-7.04,7.23c-1.21,2.83-.87,6.04.96,8.54s4.8,3.61,7.84,3.35c2.72-.23,5.77-1.73,6.89-4.36.86-2.03.73-4.92-1.64-5.81-.42-.16-1-.19-1.41,0-.33.15-.39.42,0,.57h0Z"/>
  <path class="cls-2" d="M571.82,364.36c.29-.33,0-.78-.29-.97-1.03-.64-2.32.48-2.38,1.53-.14,1.53,2.02,2.33,3.1,1.44,1.12-.87,1.13-2.77.06-3.65-1.03-.96-2.68-1.07-3.83-.3-2.7,1.62-1.95,5.49.98,6.15,2.7.51,5.4-2.22,5.36-4.88-.19-4.92-5.81-5.95-8.91-2.61-5.33,5.86-4.1,14.46-5.51,21.82-1.15,6.28-3.38,12.24-5.7,18.05-2.37,5.82-4.52,11.99-8.85,16.75-1.65,1.8-3.36,3.35-5.27,4.88-.66.5-1.6.98-2.61.87-.97-.11-1.7-.53-2.41-.86-4.28-1.96-4.09-5.47-.32-7.91,2.63-2.43,5.45,1.28,3.88,3.77-.83,1.46-3.18,2.12-4.3.64-.84-1.16.54-2.95,1.74-1.93.31.25.54.58.75.9-.23-.31-.48-.62-.8-.84-1.09-.87-2.23.79-1.46,1.69,1,1.18,2.97.53,3.6-.73.74-1.23.07-3.03-1.17-3.47-.57-.23-1.11.18-1.73.67-.6.47-1.17.97-1.61,1.54-2.38,2.81,1.59,4.83,3.93,5.28,1.15.11,2.26-1.18,3.41-2.19,5.96-5.12,8.75-12.39,11.52-19.71,2.26-5.81,4.38-11.68,5.43-17.73,1.59-8.19.33-22.67,10.83-25.08,3.66-.72,7.31,2.53,7.09,6.27-.13,3.57-3.5,6.8-7.16,6.07-3.96-.96-4.77-6.28-1.21-8.22,3.53-2.11,8,2.19,4.57,5.22-1.44,1.04-3.94-.02-3.71-1.9.16-1.21,1.61-2.32,2.72-1.56.3.22.56.72.24,1.03h0Z"/>
  <path class="cls-2" d="M543.57,359.29c2.17,1.74,1.15,4.77-1.28,5.62-3.78,1.82-13.05,0-9.08-5.64.8-.98,1.89-1.6,2.98-2.08,2.23-.89,4.49-1.62,6.92-1.66,3.73-.11,7.67,2.76,7.77,6.7-.46,8.21-10.86,10.48-17.46,8.62-6.25-1.75-8.84-10.25-5.73-15.67,1.96-3.16,5.41-4.96,8.45-6.71,4.12-2.3,8.5-4.28,13.18-5.19,4.69-.95,9.58-.46,14.19.56,6.87,1.45,13.63,3.6,19.99,6.57,8.38,3.88,16.48,8.49,25.52,10.52,4.62.99,16.44,2.79,18.13-3.01.25-4.02-7.23-5.97-10.25-4.55-2.03.77-2.84,3.58-1.08,5.05,1.54,1.37,4.45,1.75,5.99.23.36-.38.43-.92.14-1.35-1.04-1.41-3.28-.99-4.29.3,0,0,.01-.1.01-.1.29.63,1.1.95,1.8.84.71-.1,1.4-.75,1.26-1.51.18.77-.51,1.47-1.24,1.6-.76.14-1.67-.16-2.01-.91.72-.98,1.97-1.59,3.22-1.38,1.27.16,2.52,1.62,1.46,2.79-1.79,1.83-4.89,1.5-6.77-.02-2.23-1.74-1.32-5.32,1.14-6.35,2.28-1.07,4.88-.72,7.16.08,6.8,2.37,5.81,8.61-.87,10.17-9.38,1.86-18.96-1.06-27.47-4.83-8.45-3.82-16.54-8.29-25.54-10.61-8.81-2.47-17.95-4.17-26.61-.25-2.11.85-4.16,1.87-6.17,2.97-2.91,1.66-6.01,3.19-7.82,6.01-2.56,4.46-.48,11.64,4.7,13.18,4.08,1.18,9.14.78,12.68-1.73,3.95-2.76,4.2-7.98-.35-10.25-3.03-1.99-14.7.54-13.15,5.31,1.51,3.39,10.27,3.6,11.47-.22.33-1.09-.08-2.35-.97-3.11h0Z"/>
  <path class="cls-2" d="M581.36,389.35c3.04,2.03,7.29,1.02,9.96-1.15,1.35-1.1,2.45-2.63,2.85-4.34.43-1.85-.16-3.53-1.55-4.8-2.75-2.52-6.82-3.1-10.29-1.92s-5.8,4.16-6.66,7.56c-.47,1.83-.6,3.96.14,5.74s2.19,2.87,3.84,3.6c3.79,1.68,8.03,1.12,11.95.3,2.04-.43,4.07-.96,6.13-1.28,2.25-.36,4.53-.4,6.8-.24,3.82.27,7.65.9,11.32,1.97,7.06,2.06,13.46,6.14,17.03,12.74,3.75,6.93,4.25,15.4,2.22,22.92-1.04,3.84-2.7,7.5-4.84,10.85s-4.55,6.54-7.82,8.54c-1.37.84-2.88,1.38-4.51,1.23-1.49-.14-2.92-.7-4.17-1.51-2.73-1.76-4.28-4.79-4.28-8.03,0-2.98,1.34-6.28,4.15-7.64s6.39-.17,8.43,1.91c.88.9,1.46,2.03,1.29,3.31s-1.03,2.56-1.96,3.5-2.01,1.76-3.25,2.09c-.34.09-.57.12-.97-.06-.58-.26-.99-.85-1.25-1.4-.75-1.6-.75-3.53-.59-5.25.04-.47-1.93-.38-1.98.25-.25,2.79.03,7.25,3.71,7.35,2.87.08,5.67-1.88,7.23-4.17.7-1.03,1.24-2.34,1.02-3.62s-1.18-2.41-2.22-3.2c-2.7-2.05-6.49-2.63-9.7-1.6-6.52,2.08-7.63,11.08-3.14,15.67,2.19,2.23,5.39,3.44,8.51,3.23,4.01-.27,7.25-2.83,9.8-5.76,5.27-6.06,8.86-13.72,9.59-21.76.7-7.7-1.3-15.99-6.53-21.85s-12.21-8.35-19.4-9.66c-4.34-.79-8.82-1.29-13.23-.81s-8.27,2.03-12.52,2.21c-3.93.16-8.62-1.48-9.12-5.93-.41-3.67,1.29-7.81,4.43-9.85s7.36-1.12,9.64,1.73c2.59,3.24-.65,7.7-3.86,8.97-1.57.62-3.13.47-4.54-.47-.44-.29-2.3.19-1.66.62h0Z"/>
  <path class="cls-2" d="M679.19,353.67c.15-.31.45-.64.78-.68-.18.02-.01,0,.09.1.21.22.37.42.48.71.38,1.02-.05,2.15-.81,2.86-1.26,1.19-3.35,1.6-4.84.6-1.88-1.27-1.28-3.71.06-5.16,1.18-1.28,3.09-2.09,4.84-1.77,1.96.35,3.47,2.08,4.24,3.83.86,1.96.85,4.16.05,6.14s-2.4,3.71-4.29,4.75c-1.04.57-2.29,1.07-3.5.96s-2.29-.76-3.23-1.44c-3.64-2.62-5.81-7.13-5.52-11.62s3.02-8.98,7.15-10.99c1.14-.56,2.4-.9,3.68-.75,1.14.14,2.22.6,3.23,1.13,2.13,1.14,4.19,2.64,6,4.23,1.93,1.7,3.16,3.73,3.52,6.29s.3,4.98.2,7.43c-.2,4.84-1.1,9.84-3.89,13.9s-7.05,6.98-10.48,10.51c-6.86,7.07-12,15.57-16.51,24.27-2.31,4.45-4.48,8.97-6.62,13.5-2.27,4.79-4.37,9.74-4.87,15.07s.37,10.54,2.63,15.17c.5,1.02,1.16,2,2.09,2.68s2.07,1.06,3.22,1.22c2.25.31,4.51-.27,6.35-1.6s3.35-3.36,4.5-5.41c1.23-2.21,2.21-4.68,2.58-7.19.34-2.31-.06-4.8-1.92-6.39-1.6-1.37-4.07-1.77-5.97-.81-1.76.89-2.81,2.83-3.31,4.66-.6,2.17-.53,4.85,1.81,5.92,1.04.48,2.34.56,3.39.06s1.89-1.51,2.38-2.49.56-2.05-.12-2.93-1.87-1.24-2.95-1.09c-.77.1-1.38.61-1.52,1.39s.33,1.35,1.05,1.62c.36.14,1.03.25,1.38,0s-.04-.48-.3-.58c-.14-.05-.18-.61-.14-.83.03-.17.09-.32.17-.47.03-.05.37-.37.37-.36h-.17c-.21-.02-.22.01-.04.11.06.09.19.18.26.27.14.18.25.4.32.62.2.62.04,1.31-.24,1.87-.26.54-.65,1.01-1.07,1.44-.28.29-.97.99-1.34.95s-.81-.56-1.02-.85c-.39-.56-.56-1.24-.58-1.92-.09-2.1.77-4.52,2.27-6.02.57-.57,1.47-1.2,2.33-1.05.98.17,1.82,1.11,2.3,1.92,1.35,2.29.75,5.18-.01,7.56s-2,4.85-3.6,6.91c-1.37,1.77-3.23,3.48-5.51,3.87-1.02.17-2.05.04-2.93-.51-1.02-.63-1.66-1.7-2.16-2.76-2.28-4.82-3.05-10.38-2.4-15.65s2.95-10.37,5.27-15.22c4.32-9.03,8.67-18.12,14.35-26.4,2.79-4.07,5.92-7.94,9.46-11.39s7.82-6.45,10.24-10.93,2.95-9.28,3-14.11c.03-2.43.07-4.98-.56-7.34s-2.25-4.21-4.13-5.73c-3.73-3.01-8.37-6.32-13.44-5.2-4.54,1.01-8.02,5.15-9.22,9.5s-.02,9.03,2.87,12.44c1.47,1.73,3.41,3.22,5.59,3.91,2.48.78,5.1.35,7.32-.98,3.67-2.21,5.9-6.62,4.37-10.81-1.47-4.06-5.95-6.11-10.04-4.84-1.86.58-3.49,1.85-4.18,3.72-.73,1.97.34,3.68,2.15,4.49s4.07.87,5.95.09,3.61-2.99,2.11-4.89c-1-1.27-4.01-1.62-4.84.03-.29.56,1.65.91,1.89.42h0Z"/>
  <g>
    <path class="cls-5" d="M626.52,146.65c48.08,48.08,77.81,114.49,77.81,187.86h-265.67s187.86-187.86,187.86-187.86Z"/>
    <path class="cls-5" d="M626.52,146.65c-48.08-48.08-114.49-77.81-187.86-77.81v265.67l187.86-187.86Z"/>
  </g>
  <g>
    <path class="cls-5" d="M250.81,146.65c-48.08,48.08-77.81,114.49-77.81,187.86h265.67l-187.86-187.86Z"/>
    <path class="cls-5" d="M250.81,146.65c48.08-48.08,114.49-77.81,187.86-77.81v265.67s-187.86-187.86-187.86-187.86Z"/>
  </g>
  <rect class="cls-3" x="173" y="600" width="531.34" height="177.12"/>
  <path class="cls-9" d="M626.52,522.37c-48.08,48.08-114.49,77.81-187.86,77.81v-265.67l187.86,187.86Z"/>
  <path class="cls-8" d="M391.04,334.51c0-26.34,21.29-47.69,47.54-47.69s47.54,21.35,47.54,47.69"/>
  <path class="cls-8" d="M337.85,334.51c0-55.81,45.1-101.06,100.74-101.06s100.74,45.25,100.74,101.06"/>
  <path class="cls-8" d="M282.94,334.51c0-86.23,69.68-156.14,155.65-156.14s155.65,69.91,155.65,156.14"/>
  <path class="cls-7" d="M226.31,334.51c0-118.13,95.46-213.89,213.22-213.89s213.22,95.76,213.22,213.89"/>
  <path class="cls-8" d="M175.3,334.51c0-144.33,117.91-261.33,263.37-261.33s263.37,117,263.37,261.33"/>
  <path class="cls-2" d="M576.11,337.71c12.61,6.03,26.68,9.04,40.47,6.84,5.55-.8,11.15-2.88,16.86-2.12,11.85,1.07,30.67,17.22,24.77,30.03-5.7,10.17-21.09,10.67-31.07,8,9.54,1.85,24.59.91,29.67-8.67,2.31-4.96-.34-10.63-3.42-14.71-5.73-7.26-14.63-13.35-24.19-12.82-6.92.76-13.8,2.86-20.86,2.57-11.33-.09-22.44-3.57-32.23-9.11h0Z"/>
  <path class="cls-2" d="M588.4,365.77c8.9,8.27,19.3,14.78,30.83,18.47,3.81,1.24,7.72,2.14,11.69,2.97,3.93.9,8.08,1.66,11.81,3.87,7.68,4.56,9.21,14.27,8.07,22.4-.53,4.06-1.52,8.03-2.81,11.88.86-3.97,1.64-7.95,1.84-11.97.57-7.63-.92-16.6-8.06-20.68-3.32-1.92-7.31-2.68-11.26-3.54-16.08-2.92-31.36-11-42.1-23.39h0Z"/>
  <path class="cls-2" d="M513.67,378.38c-6.48-2.83-13.53-12.39-11.82-19.75.35-1.61,1.59-2.87,2.27-4.33,3.03-6.6-1.83-11.09-8.24-11.65-6.31-1.14-21.77-2.5-28.33-3.29,6.37-.15,12.74-.04,19.1.4,3.18.23,6.36.49,9.55.99,3.26.4,6.98,1.44,8.97,4.36,2.22,2.82,2.23,6.95.52,9.99-.67,1.42-1.88,2.45-2.32,3.98-1.71,6.65,4.58,16.08,10.3,19.31h0Z"/>
  <path class="cls-4" d="M171.4,600.85l-.15-3.06,15.49-21.98,2.01-2.64.94-1.25,12.52,13.59h0c-.06-.12,1.6-1.28,1.69-1.39l-10.55-15.9,1.7-2.83,11.53,16.09c.34.69-4.27-8.12-4.45-8.86l-5.67-10.34,11.19,11.05-6.42-14.63,2.53-3.52,1.7-2.32,20.17-28,20.09,22.51-15.41-29,3.82-5.3,40.61,34.98-1.18-86.9,22.16-29.18,36.62,53.05-23.55-70.25,11.86-15.61c.36-.47,1.08-.43,1.37.08l20.7,35.43-14.37-45.66c2.08-2.74,4.27-5.39,6.55-7.94,5.39-6,11.32-11.45,17.72-16.29,6.9-5.22,14.34-9.73,22.19-13.44,9.03-4.28,18.62-7.51,28.56-9.58l31.93-6.66h2.82v264.93"/>
</svg>