<?xml version="1.0" encoding="UTF-8"?>
<svg id="Capa_1" xmlns="http://www.w3.org/2000/svg" xmlns:xlink="http://www.w3.org/1999/xlink" viewBox="0 0 850.39 850.39">
  <defs>
    <style>
      .cls-1 {
        fill: #00d8c8;
      }

      .cls-1, .cls-2, .cls-3, .cls-4, .cls-5, .cls-6, .cls-7, .cls-8, .cls-9, .cls-10, .cls-11 {
        stroke-linecap: round;
      }

      .cls-1, .cls-2, .cls-3, .cls-4, .cls-5, .cls-6, .cls-7, .cls-8, .cls-9, .cls-10, .cls-11, .cls-12 {
        stroke-linejoin: round;
      }

      .cls-1, .cls-2, .cls-3, .cls-4, .cls-5, .cls-6, .cls-7, .cls-8, .cls-9, .cls-10, .cls-11, .cls-12, .cls-13 {
        stroke-width: 4px;
      }

      .cls-1, .cls-2, .cls-3, .cls-4, .cls-5, .cls-6, .cls-7, .cls-9, .cls-12, .cls-13, .cls-14 {
        stroke: #000;
      }

      .cls-2, .cls-15, .cls-11, .cls-13 {
        fill: none;
      }

      .cls-16 {
        fill: #afd7f4;
        stroke: #a74d96;
        stroke-width: 3px;
      }

      .cls-16, .cls-15, .cls-13, .cls-14 {
        stroke-miterlimit: 10;
      }

      .cls-15 {
        stroke-width: 2px;
      }

      .cls-15, .cls-11 {
        stroke: #a30000;
      }

      .cls-3 {
        fill: url(#Degradado_sin_nombre_53-3);
      }

      .cls-4 {
        fill: url(#Degradado_sin_nombre_53-2);
      }

      .cls-5 {
        fill: url(#Degradado_sin_nombre_53-4);
      }

      .cls-17 {
        fill: #ffd4f1;
      }

      .cls-6 {
        fill: url(#Degradado_sin_nombre_49);
      }

      .cls-7 {
        fill: url(#Degradado_sin_nombre_53);
      }

      .cls-8 {
        fill: #4c3100;
        opacity: .9;
        stroke: #4c3100;
      }

      .cls-9 {
        fill: #ff0;
      }

      .cls-10 {
        fill: #fff;
        stroke: #00d8c8;
      }

      .cls-12 {
        fill: #a30000;
        stroke-linecap: square;
      }

      .cls-14 {
        fill: url(#Degradado_sin_nombre_48);
      }
    </style>
    <linearGradient id="Degradado_sin_nombre_48" data-name="Degradado sin nombre 48" x1="764.54" y1="606.64" x2="650.81" y2="606.64" gradientTransform="translate(101.02 1314.32) rotate(-90)" gradientUnits="userSpaceOnUse">
      <stop offset="0" stop-color="#ffa350"/>
      <stop offset="1" stop-color="#ff5050"/>
    </linearGradient>
    <linearGradient id="Degradado_sin_nombre_49" data-name="Degradado sin nombre 49" x1="589.61" y1="428.93" x2="636.79" y2="428.93" gradientTransform="translate(0 0)" gradientUnits="userSpaceOnUse">
      <stop offset="0" stop-color="#f29100"/>
      <stop offset="1" stop-color="#e84e1b"/>
    </linearGradient>
    <linearGradient id="Degradado_sin_nombre_53" data-name="Degradado sin nombre 53" x1="207.14" y1="317.5" x2="513.58" y2="745.53" gradientTransform="translate(0 0)" gradientUnits="userSpaceOnUse">
      <stop offset="0" stop-color="#d133aa"/>
      <stop offset=".76" stop-color="#572457"/>
    </linearGradient>
    <linearGradient id="Degradado_sin_nombre_53-2" data-name="Degradado sin nombre 53" x1="275.05" y1="182.23" x2="704.75" y2="782.43" xlink:href="#Degradado_sin_nombre_53"/>
    <linearGradient id="Degradado_sin_nombre_53-3" data-name="Degradado sin nombre 53" x1="138.1" y1="453.51" x2="321.39" y2="709.52" xlink:href="#Degradado_sin_nombre_53"/>
    <linearGradient id="Degradado_sin_nombre_53-4" data-name="Degradado sin nombre 53" x1="74.67" y1="570.39" x2="143.15" y2="666.03" xlink:href="#Degradado_sin_nombre_53"/>
  </defs>
  <rect class="cls-17" x="-34.71" y="-30.97" width="919.82" height="919.82"/>
  <polygon class="cls-12" points="780.61 633.76 764.54 642.19 764.54 571.11 780.61 578.6 780.61 633.76"/>
  <rect class="cls-14" x="672.13" y="549.78" width="71.08" height="113.73" transform="translate(1314.32 -101.02) rotate(90)"/>
  <rect class="cls-11" x="669.76" y="604.3" width="47.39" height="28.43" transform="translate(1311.97 -74.94) rotate(90)"/>
  <rect class="cls-2" x="669.76" y="604.3" width="47.39" height="28.43" transform="translate(1311.97 -74.94) rotate(90)"/>
  <rect class="cls-2" x="698.19" y="604.3" width="47.39" height="28.43" transform="translate(1340.4 -103.37) rotate(90)"/>
  <rect class="cls-2" x="641.32" y="604.3" width="47.39" height="28.43" transform="translate(1283.53 -46.5) rotate(90)"/>
  <rect class="cls-2" x="726.63" y="604.29" width="47.37" height="28.43" transform="translate(1368.83 -131.81) rotate(90)"/>
  <rect class="cls-15" x="681.6" y="568.76" width="23.69" height="28.43" transform="translate(1276.43 -110.48) rotate(90)"/>
  <rect class="cls-2" x="681.6" y="568.76" width="23.69" height="28.43" transform="translate(1276.43 -110.48) rotate(90)"/>
  <rect class="cls-13" x="710.04" y="568.76" width="23.69" height="28.43" transform="translate(1304.86 -138.91) rotate(90)"/>
  <rect class="cls-2" x="653.17" y="568.76" width="23.69" height="28.43" transform="translate(1247.99 -82.04) rotate(90)"/>
  <rect class="cls-2" x="738.47" y="568.75" width="23.71" height="28.44" transform="translate(1333.29 -167.36) rotate(90)"/>
  <rect class="cls-15" x="681.6" y="592.45" width="23.69" height="28.43" transform="translate(1300.12 -86.78) rotate(90)"/>
  <rect class="cls-2" x="681.6" y="592.45" width="23.69" height="28.43" transform="translate(1300.12 -86.78) rotate(90)"/>
  <rect class="cls-13" x="710.04" y="592.45" width="23.69" height="28.43" transform="translate(1328.55 -115.22) rotate(90)"/>
  <rect class="cls-13" x="653.17" y="592.45" width="23.69" height="28.43" transform="translate(1271.69 -58.35) rotate(90)"/>
  <rect class="cls-2" x="738.47" y="592.45" width="23.69" height="28.43" transform="translate(1356.99 -143.65) rotate(90)"/>
  <polygon class="cls-6" points="589.61 784.36 625.15 761.62 625.15 96.11 589.61 73.52 589.61 784.36"/>
  <rect class="cls-9" x="447.42" y="73.52" width="142.19" height="710.84"/>
  <path class="cls-16" d="M476.26,109.63h13.39c1.74,0,3.15,1.41,3.15,3.15v35.66h-19.68v-35.66c0-1.74,1.41-3.15,3.15-3.15Z"/>
  <path class="cls-16" d="M547.34,109.63h13.39c1.74,0,3.15,1.41,3.15,3.15v35.66h-19.68v-35.66c0-1.74,1.41-3.15,3.15-3.15Z"/>
  <path class="cls-16" d="M476.26,196.87h13.39c1.74,0,3.15,1.41,3.15,3.15v35.66h-19.68v-35.66c0-1.74,1.41-3.15,3.15-3.15Z"/>
  <path class="cls-16" d="M547.34,196.87h13.39c1.74,0,3.15,1.41,3.15,3.15v35.66h-19.68v-35.66c0-1.74,1.41-3.15,3.15-3.15Z"/>
  <path class="cls-16" d="M476.26,339h13.39c1.74,0,3.15,1.41,3.15,3.15v35.66h-19.68v-35.66c0-1.74,1.41-3.15,3.15-3.15Z"/>
  <path class="cls-16" d="M547.34,339h13.39c1.74,0,3.15,1.41,3.15,3.15v35.66h-19.68v-35.66c0-1.74,1.41-3.15,3.15-3.15Z"/>
  <path class="cls-16" d="M476.26,426.25h13.39c1.74,0,3.15,1.41,3.15,3.15v35.66h-19.68v-35.66c0-1.74,1.41-3.15,3.15-3.15Z"/>
  <path class="cls-16" d="M547.34,426.25h13.39c1.74,0,3.15,1.41,3.15,3.15v35.66h-19.68v-35.66c0-1.74,1.41-3.15,3.15-3.15Z"/>
  <path class="cls-16" d="M476.26,552.29h13.39c1.74,0,3.15,1.41,3.15,3.15v35.66h-19.68v-35.66c0-1.74,1.41-3.15,3.15-3.15Z"/>
  <path class="cls-16" d="M547.34,552.29h13.39c1.74,0,3.15,1.41,3.15,3.15v35.66h-19.68v-35.66c0-1.74,1.41-3.15,3.15-3.15Z"/>
  <path class="cls-16" d="M476.26,639.54h13.39c1.74,0,3.15,1.41,3.15,3.15v35.66h-19.68v-35.66c0-1.74,1.41-3.15,3.15-3.15Z"/>
  <path class="cls-16" d="M547.34,639.54h13.39c1.74,0,3.15,1.41,3.15,3.15v35.66h-19.68v-35.66c0-1.74,1.41-3.15,3.15-3.15Z"/>
  <path class="cls-16" d="M615.37,668.81l-15.17,9.56v-34.49c0-2.44,1.22-4.65,3.1-5.59l5.06-2.55c3.33-1.68,7.01,1.26,7.01,5.59v27.48Z"/>
  <path class="cls-16" d="M615.37,584.76l-15.17,6.5v-34.22c0-2.42,1.22-4.61,3.1-5.55l5.06-2.53c3.33-1.67,7.01,1.25,7.01,5.55v30.24Z"/>
  <path class="cls-16" d="M615.37,462.25l-15.17,2.95v-32.35c0-3.6,2.26-6.52,5.06-6.52h5.06c2.79,0,5.06,2.92,5.06,6.52v29.4Z"/>
  <path class="cls-16" d="M615.35,378.93l-15.14-1.04v-33.25c0-3.53,3.01-6.14,6.17-5.36l5.05,1.26c2.29.57,3.92,2.79,3.92,5.36v33.03Z"/>
  <path class="cls-16" d="M615.37,238.13l-15.17-2.47v-32.13c0-4.78,3.6-8.06,6.91-6.31l5.53,2.93c1.67,1.17,2.72,3.49,2.72,6.02v31.96Z"/>
  <path class="cls-16" d="M615.37,153.33l-15.17-5.21v-32.02c0-5,4.25-8.11,7.62-5.58l4.83,3.63c1.67,1.11,2.72,3.33,2.72,5.74v33.44Z"/>
  <polygon class="cls-7" points="318.58 629.53 283.02 642.19 283.02 244.16 318.58 254.49 318.58 629.53"/>
  <polygon class="cls-4" points="425.19 624.15 389.74 642.2 389.65 73.52 425.19 92.2 425.19 624.15"/>
  <polygon class="cls-3" points="211.94 635 176.49 642.2 176.49 414.65 211.94 421.6 211.94 635"/>
  <polygon class="cls-5" points="105.4 635.95 87.63 642.23 87.63 556.86 105.4 559.59 105.4 635.95"/>
  <polygon class="cls-1" points="34.31 642.19 87.63 556.86 87.63 642.21 34.31 642.19"/>
  <polygon class="cls-1" points="176.49 414.65 123.16 499.99 123.18 642.19 176.49 642.2 176.49 414.65"/>
  <polygon class="cls-1" points="283.02 244.16 229.8 329.33 229.83 642.18 283.02 642.19 283.02 244.16"/>
  <polygon class="cls-1" points="389.65 73.52 336.43 158.69 336.46 642.18 389.76 642.2 389.65 73.52"/>
  <path class="cls-10" d="M215.52,179.26c0,1.98-1.61,3.59-3.59,3.59h-19.46s-125.47,0-125.47,0c-.22,0-.4-.18-.39-.4.21-8.06,6.81-14.52,14.92-14.52,1.52,0,2.98.23,4.36.65.23.07.47-.08.5-.32,2.39-19.21,18.77-34.07,38.62-34.07,16.42,0,30.45,10.17,36.17,24.54.08.21.33.3.53.2,3.15-1.61,6.71-2.52,10.49-2.52,11.05,0,20.29,7.78,22.53,18.17.04.18.19.31.38.31h16.45c2.2,0,3.98,1.78,3.98,3.98v.39Z"/>
  <path class="cls-8" d="M627.29,297.13s-2.62-1.24-8.4-.61c-10.91,1.19-19.85,10.02-19.85,22.38v3.41h26.11v-6.95"/>
  <path class="cls-10" d="M640.61,317.93h-36.19c0-9.99,8.1-18.1,18.1-18.1.79,0,1.57.07,2.34.17,3.11-5.5,8.99-9.22,15.76-9.22,3.87,0,7.45,1.23,10.39,3.3,4.17-20.7,22.44-36.28,44.37-36.28s41.51,16.73,44.76,38.53c2.32-.8,4.81-1.24,7.41-1.24,12.61,0,22.83,10.22,22.83,22.83h-129.76Z"/>
</svg>