<?xml version="1.0" encoding="UTF-8"?>
<svg id="Capa_1" xmlns="http://www.w3.org/2000/svg" viewBox="0 0 850.39 850.39">
  <defs>
    <style>
      .cls-1 {
        fill: none;
      }

      .cls-1, .cls-2, .cls-3, .cls-4, .cls-5 {
        stroke: #000;
        stroke-width: 4px;
      }

      .cls-1, .cls-2, .cls-4 {
        stroke-linecap: round;
        stroke-linejoin: round;
      }

      .cls-6 {
        fill: #51f4fc;
      }

      .cls-3 {
        fill: #ff0e8e;
      }

      .cls-3, .cls-5 {
        stroke-miterlimit: 10;
      }

      .cls-4 {
        fill: #ffed00;
      }

      .cls-7 {
        fill: #fff;
      }
    </style>
  </defs>
  <rect class="cls-6" x="-23.06" y="-23.06" width="896.51" height="896.51"/>
  <path class="cls-2" d="M239.14,70.87c0,78.28,95.18,141.73,212.6,141.73s212.35-52.99,212.35-131.27l-26.29-10.47H239.14Z"/>
  <polyline class="cls-1" points="425.2 779.53 248.03 779.53 248.03 567.42"/>
  <polyline class="cls-1" points="426.47 247.87 425.2 247.87 425.2 247.88 212.6 354.3 212.6 71.86"/>
  <g>
    <path class="cls-7" d="M425.2,779.53h35.44c156.55,0,283.45-119.02,283.45-265.83s-126.91-265.83-283.45-265.83h-35.44v531.66Z"/>
    <path class="cls-1" d="M425.2,779.53h35.44c156.55,0,283.45-119.02,283.45-265.83s-126.91-265.83-283.45-265.83h-35.44v531.66Z"/>
  </g>
  <ellipse class="cls-5" cx="257.65" cy="495.87" rx="115.92" ry="106.11"/>
  <circle class="cls-3" cx="248.03" cy="496.06" r="106.11"/>
  <path class="cls-4" d="M212.6,70.87c0,78.28,95.18,141.73,212.6,141.73s212.6-63.46,212.6-141.73H212.6Z"/>
  <path d="M425.2,779.53c156.55,0,283.45-119.02,283.45-265.83s-126.91-265.83-283.45-265.83v531.66Z"/>
</svg>