<svg width="500" height="500" viewBox="0 0 500 500" fill="none" xmlns="http://www.w3.org/2000/svg">
<rect width="500" height="500" fill="#F59D11"/>
<path d="M186.942 126.118C185.524 125.235 184.283 123.381 182.776 122.409C182.776 122.409 182.776 122.409 182.776 121.879C180.806 120.746 179.252 119.013 178.344 116.935C178.344 116.935 177.369 116.935 177.103 116.228C177.103 116.228 176.482 116.228 176.128 116.228C175.773 116.228 176.128 115.787 176.128 115.434H175.684C174.355 115.434 174.532 114.197 173.468 114.021C171.927 113.277 170.495 112.327 169.213 111.195C169.449 111.089 169.639 110.901 169.745 110.665C169.302 110.665 168.859 110.665 168.416 110.665C167.972 110.665 167.44 110.665 167.263 109.871C166.554 109.871 167.263 109.164 166.288 109.871V109.341C165.579 109.871 166.288 108.635 165.668 108.723C165.668 108.723 165.668 108.193 165.136 108.105C164.515 108.105 164.604 107.222 164.072 108.105C163.54 108.988 164.692 108.105 165.047 107.487C163.155 105.967 161.562 104.11 160.349 102.012C160.301 101.749 160.301 101.48 160.349 101.217C160.349 101.217 160.349 100.511 159.728 100.511C159.728 100.511 158.842 100.511 158.753 100.511C158.85 100.558 158.956 100.582 159.064 100.582C159.171 100.582 159.277 100.558 159.374 100.511C158.753 100.511 158.399 100.511 157.955 100.511C157.955 100.511 157.424 99.7163 156.803 99.8046H157.246C157.246 99.0099 156.449 100.334 156.271 99.8046C156.094 99.2748 156.271 99.8046 156.714 99.8046C157.158 99.8046 155.296 99.1865 154.764 99.0099C154.764 99.0099 153.966 98.1269 153.346 97.862C152.725 97.5971 154.055 97.244 153.346 96.8908C152.637 96.5376 152.371 96.361 151.928 97.3322C151.928 96.8025 151.307 96.0078 150.864 95.9195C150.421 95.8312 151.307 95.0365 151.662 95.3014V92.6524C151.662 92.6524 151.662 92.6524 152.105 92.6524C152.548 92.6524 151.219 92.6524 151.13 92.1226C151.041 91.5928 149.623 92.1226 149.091 92.1226C148.559 92.1226 149.534 91.4162 149.8 91.4162C149.184 91.5152 148.555 91.5152 147.939 91.4162C147.939 91.4162 148.382 91.4162 147.939 90.8864C147.495 90.3566 147.939 90.8864 147.318 90.8864C146.698 90.8864 146.166 90.0917 146.875 89.7385C147.584 89.3853 147.407 89.7385 147.495 89.7385C147.584 89.7385 146.786 89.7385 146.432 89.1204H145.811C145.707 89.0482 145.583 89.0096 145.457 89.0096C145.33 89.0096 145.206 89.0482 145.102 89.1204C145.102 89.1204 145.102 88.414 145.102 87.9725C145.102 87.531 145.102 87.9725 145.634 87.9725C146.166 87.9725 145.634 86.648 145.634 85.765C145.634 84.882 145.634 86.2948 145.634 86.2948C145.634 86.2948 146.698 84.0873 147.584 84.0873H148.205C148.205 84.0873 148.205 84.0873 148.205 83.5575C148.486 82.9324 148.949 82.4052 149.533 82.0434C150.118 81.6816 150.797 81.5017 151.484 81.5267C151.426 81.3868 151.396 81.2367 151.396 81.0852C151.396 80.9336 151.426 80.7836 151.484 80.6437C151.484 80.6437 151.928 80.6437 152.194 80.6437C152.46 80.6437 151.307 81.9682 151.484 81.3501C151.662 80.732 151.484 80.4671 151.484 80.8203C151.484 81.1735 151.484 80.0256 152.371 80.0256C153.257 80.0256 152.371 80.5554 152.371 80.0256C152.371 79.4958 152.371 80.0256 152.371 79.4075C152.371 79.4075 152.903 78.7894 153.169 79.4075C153.169 79.4075 153.169 78.8777 153.169 78.6128C153.169 78.6128 153.701 78.6128 153.612 77.8181C153.523 77.0234 154.676 77.0234 155.03 77.1117C155.385 77.2 155.03 76.4936 155.917 76.317H156.892C156.892 76.317 156.892 75.8755 156.892 75.6989C156.892 75.5223 157.601 74.9042 158.221 74.9925C158.221 74.9925 158.665 74.3744 159.285 74.1978C159.285 74.1978 159.906 73.668 160.083 74.1978C160.26 74.7276 160.615 74.1978 160.083 73.668C160.56 73.5026 161.009 73.2643 161.413 72.9616C162.033 72.9616 162.742 72.2552 163.008 72.3435C163.54 72.3435 163.274 72.4318 163.008 72.3435C163.008 71.8137 163.629 72.3435 164.338 73.7563V74.3744C164.338 74.3744 164.338 74.3744 164.338 73.8446C164.338 73.8446 164.338 73.8446 164.338 74.4627C164.338 74.4627 164.338 74.4627 164.781 74.4627C164.781 74.4627 165.224 75.0808 165.402 75.0808C165.579 75.0808 165.402 75.0808 165.402 75.6989C165.402 75.6989 165.402 76.2287 165.933 76.4053C166.032 76.6178 166.185 76.8006 166.377 76.9351C166.377 76.9351 165.933 76.9351 166.377 77.6415C166.82 78.3479 166.997 77.6415 166.997 77.6415C166.997 77.6415 168.061 78.7011 168.061 79.4075C168.504 80.2905 169.479 80.9969 169.479 81.9682C169.479 82.9395 169.479 81.9682 169.036 81.9682C169.036 81.9682 169.036 81.9682 169.036 81.4384C169.036 80.9086 170.011 82.6746 169.922 83.1161C169.922 83.1161 169.922 83.7341 169.922 83.9107C169.922 83.9107 170.543 83.9107 170.454 83.9107C170.454 83.9107 171.429 83.9107 171.429 84.7937H171.961C171.961 84.7937 171.961 85.8533 171.961 86.2065C172.638 86.498 173.243 86.9336 173.733 87.4828C174.223 88.032 174.587 88.6813 174.798 89.3853C174.798 89.3853 175.33 89.3853 175.241 89.3853C175.152 89.3853 175.241 89.8268 174.443 89.3853C173.646 88.9438 175.152 89.3853 175.418 90.0034C175.418 90.0034 175.418 90.7981 176.039 90.6215C175.778 90.6975 175.502 90.6975 175.241 90.6215C174.709 91.2396 173.823 90.6215 173.202 90.6215C172.759 91.1513 172.316 90.6215 172.316 90.6215C172.316 90.6215 173.557 90.6215 173.734 90.6215C173.911 90.6215 175.152 90.6215 175.33 90.6215C175.507 90.6215 175.33 90.0917 174.621 90.6215C173.911 91.1513 175.152 90.6215 175.152 91.4162C175.152 92.2109 175.862 91.4162 176.039 91.4162C176.216 91.4162 175.418 91.4162 175.507 91.4162C175.596 91.4162 176.305 91.4162 176.393 91.4162C176.482 91.4162 176.393 91.946 177.014 91.946C177.635 91.946 175.684 91.946 175.596 92.5641C175.507 93.1822 176.482 92.5641 177.103 92.5641C176.985 92.6438 176.846 92.6864 176.704 92.6864C176.561 92.6864 176.422 92.6438 176.305 92.5641C176.305 92.5641 177.457 92.5641 176.305 93.4471H176.837V93.9769C176.837 93.9769 177.723 94.595 176.837 94.7716C175.95 94.9482 176.837 95.478 177.546 94.7716C178.255 94.0652 177.014 94.7716 177.546 94.0652C178.078 93.3588 177.546 94.5067 178.078 94.6833H178.521C178.521 95.1248 177.812 94.6833 178.078 95.478H177.635C177.635 95.478 177.635 95.478 177.635 96.0961H178.876C178.876 96.0961 178.432 96.0961 178.876 96.5376H178.255C178.115 96.6379 178.001 96.7707 177.924 96.9245C177.847 97.0783 177.808 97.2486 177.812 97.4206C177.812 97.4206 178.698 97.4206 178.787 97.4206C178.876 97.4206 178.787 97.9503 178.787 97.4206C178.787 96.8908 178.787 97.4206 179.496 97.4206C180.205 97.4206 179.496 98.3035 178.787 98.6567H177.989C177.369 98.6567 177.989 98.6567 177.103 98.6567C177.103 98.6567 178.432 98.6567 179.141 98.6567C179.851 98.6567 177.457 99.628 179.141 99.9812C180.826 100.334 180.028 99.9812 179.673 99.9812C179.319 99.9812 180.471 99.9812 180.294 100.599C180.117 101.217 179.673 101.306 179.053 100.599C178.432 99.8929 179.053 100.599 179.053 100.158C179.053 99.7163 178.344 100.158 178.432 100.864C178.521 101.571 178.432 101.394 179.053 101.306C179.673 101.217 179.053 100.864 179.053 100.864C179.053 100.864 179.053 101.659 179.496 101.659C179.939 101.659 179.496 101.129 180.028 101.041C180.028 101.747 180.56 101.041 180.648 101.747H180.117C179.673 101.747 180.117 100.776 179.407 101.129C178.698 101.482 179.851 101.571 179.407 102.012C179.407 102.012 178.432 102.63 179.407 103.072C180.382 103.513 179.407 103.072 179.939 103.072C180.471 103.072 180.471 103.778 180.648 104.22C180.826 104.661 180.648 105.014 180.117 104.661C180.174 104.54 180.206 104.409 180.211 104.275C180.215 104.141 180.191 104.007 180.141 103.883C180.091 103.759 180.016 103.646 179.92 103.552C179.825 103.458 179.71 103.385 179.585 103.337C179.053 103.778 179.585 102.807 178.876 102.807C178.166 102.807 178.344 103.513 177.989 103.69C177.989 103.69 177.989 103.69 178.698 103.69C178.698 103.962 178.772 104.229 178.913 104.462C179.054 104.695 179.255 104.886 179.496 105.014C179.496 105.014 178.964 105.014 178.876 105.014C179.116 105.668 179.265 106.351 179.319 107.045C179.762 106.515 179.319 107.752 179.939 107.045C180.56 106.339 186.942 115.522 186.942 115.699C186.942 115.699 186.942 116.228 186.942 116.405C186.942 116.582 186.322 116.405 185.878 116.405C185.435 116.405 185.878 116.405 185.878 116.846C186.297 117.233 186.655 117.679 186.942 118.171C186.942 118.877 186.942 119.76 186.942 120.378C186.942 120.996 186.499 120.378 186.499 120.908C186.499 120.908 186.499 121.968 186.942 122.056C186.942 122.056 186.942 122.762 186.942 123.116C186.984 123.674 186.984 124.235 186.942 124.793C186.942 124.793 186.942 124.793 186.942 125.235L186.41 124.352C186.41 124.352 186.41 123.645 186.41 123.557C186.41 123.557 186.41 123.557 185.967 123.557C185.967 123.557 185.967 123.116 185.967 122.762C185.967 122.762 185.967 122.762 185.967 121.968C185.967 121.173 185.524 121.173 185.435 120.643C185.775 120.781 186.056 121.03 186.233 121.35C186.233 120.908 186.233 120.908 186.233 120.555C185.913 120.476 185.631 120.289 185.435 120.025C185.435 120.025 184.903 120.025 184.815 119.231C184.726 118.436 184.371 117.553 184.194 116.846C183.485 116.846 183.574 115.699 183.13 115.345C182.687 114.992 182.333 113.668 182.687 113.05C181.925 111.796 181.301 110.463 180.826 109.076H181.446C181.003 109.076 181.446 109.076 181.446 108.546C181.446 108.016 180.826 108.546 180.382 108.546C179.939 108.546 179.851 107.045 179.23 106.604C178.344 106.604 178.698 105.367 178.521 104.573C178.344 103.778 178.521 104.573 178.521 104.043C178.521 103.513 177.723 103.602 177.103 103.16C176.967 102.609 176.967 102.033 177.103 101.482C175.596 100.246 175.507 98.4801 174.443 96.9791C173.025 95.7429 173.114 93.4471 172.227 92.2109H172.936C173.087 92.2124 173.232 92.1596 173.347 92.0621C173.461 91.9647 173.535 91.8293 173.557 91.6811C173.557 91.1513 172.936 90.7098 173.557 90.2683C174.177 89.8268 173.557 89.8268 172.936 89.4736C172.807 88.7359 172.568 88.0216 172.227 87.3544C172.227 87.3544 172.227 86.1182 171.518 86.7363C171.518 85.6767 170.543 84.7937 170.543 83.7341C170.389 82.9769 170.088 82.2569 169.657 81.615C169.657 81.615 168.593 79.0543 167.884 77.9947L166.111 75.2574C165.49 74.3744 166.111 74.551 165.402 74.7276C165.402 74.7276 164.072 75.3457 163.983 75.9638C163.895 76.5819 163.451 75.9638 163.451 75.9638C163.451 75.9638 162.122 76.7585 161.767 77.5532C161.767 77.5532 160.703 78.6128 159.994 79.0543C159.994 79.0543 159.994 79.9373 159.285 79.6724C157.865 80.9714 156.668 82.4925 155.739 84.1756C154.587 84.882 154.764 83.3809 154.498 84.1756C154.498 84.1756 153.435 84.1756 153.523 84.6171C153.612 85.0586 153.523 84.6171 153.523 85.1469C153.523 85.6767 152.371 85.1469 152.282 86.2065C152.282 87.3544 151.396 87.8842 152.282 88.3257C153.169 88.7672 152.282 88.3257 152.282 88.8555C152.282 89.3853 152.991 88.8555 153.169 88.8555L158.399 92.7407C161.609 95.4176 164.576 98.3724 167.263 101.571C167.263 102.983 167.263 103.072 168.416 103.602C168.416 103.602 168.947 104.131 169.568 103.602C170.543 104.838 171.695 105.809 172.759 107.045C172.759 107.045 172.05 107.045 172.316 107.045H172.848H173.468C176.153 110.155 178.64 113.428 180.914 116.846C181.574 117.768 182.285 118.652 183.042 119.495C184.496 122.192 186.219 124.736 188.183 127.089C187.738 126.808 187.322 126.483 186.942 126.118Z" fill="white"/>
<path d="M186.942 127.002C187.386 127.002 186.942 127.534 186.942 127.002Z" fill="white"/>
<path d="M186.233 114.374C186.233 114.374 186.765 114.374 186.854 115.172L186.233 114.374Z" fill="white"/>
<path d="M185.7 106.783C185.7 106.783 185.7 106.783 185.7 106.251C185.7 105.719 186.055 106.694 185.7 106.783Z" fill="white"/>
<path d="M161.057 74.373L161.232 74.1978V74.373H161.057Z" fill="white"/>
<path d="M145.987 87.6192C145.987 87.6192 145.544 87.6192 145.367 87.6192C145.19 87.6192 145.722 88.0625 145.987 87.6192Z" fill="white"/>
<path d="M153.525 95.4797L153.969 95.0365L153.525 95.4797Z" fill="white"/>
<path d="M196.695 157.906C194.391 156.934 191.82 154.815 189.338 153.755C189.338 153.755 189.338 153.755 188.895 153.137C185.801 151.842 182.976 149.985 180.562 147.663C180.562 147.221 179.144 147.663 178.612 147.045C178.612 147.045 177.46 146.603 177.105 147.045C176.75 147.486 177.105 146.515 177.105 146.162H176.573C175.155 146.603 174.446 144.837 172.939 144.661C170.489 143.838 168.116 142.804 165.847 141.57C165.967 141.512 166.07 141.425 166.148 141.317C166.225 141.209 166.274 141.084 166.29 140.952C166.29 141.394 165.138 140.952 164.517 140.952C163.897 140.952 163.188 140.952 162.656 140.157C161.769 140.157 162.035 139.363 161.238 140.157V139.539C160.617 140.246 161.238 138.745 160.085 138.921C160.085 138.921 160.085 138.391 159.199 138.303C158.224 138.303 157.958 137.332 157.603 138.303C157.249 139.274 158.578 138.303 158.578 137.597C155.475 136.442 152.503 134.962 149.714 133.182C149.654 132.861 149.654 132.531 149.714 132.21C149.714 132.21 148.65 131.769 148.118 132.21C147.586 132.652 148.118 131.769 148.118 131.592C148.118 131.416 147.143 131.592 146.7 131.592C146.842 131.568 146.974 131.506 147.083 131.413C147.193 131.319 147.275 131.198 147.32 131.063C146.523 131.063 145.991 131.063 145.282 131.063C145.282 131.063 144.218 130.268 143.42 130.268H143.863C143.243 129.297 143.154 130.886 142.534 130.268C142.534 130.268 140.406 129.65 139.608 129.473C138.781 128.978 137.922 128.535 137.038 128.149C137.038 127.707 137.747 127.354 137.038 126.912C136.329 126.471 135.619 126.029 135.353 126.912C134.822 126.118 134.29 124.882 133.847 124.617C133.403 124.352 134.378 123.734 134.822 124.617V123.91C134.822 123.38 133.847 123.027 133.758 122.674C133.669 122.321 131.896 122.674 131.276 121.703C130.655 120.731 133.758 117.553 133.758 118.171H131.808C131.808 118.171 132.251 117.729 131.808 117.464C131.364 117.2 131.808 117.464 131.187 117.464C130.567 117.464 130.301 116.405 131.187 115.875C131.187 115.875 130.567 115.875 130.212 114.992C130.212 114.992 129.237 114.197 129.148 114.992C129.148 114.992 128.173 114.462 127.819 113.932C127.464 113.403 127.819 113.932 128.351 113.932C127.54 113.474 126.795 112.91 126.134 112.255C126.134 112.255 126.844 112.255 126.755 112.255C126.755 111.019 124.893 110.577 124.805 109.341C124.805 109.341 124.805 108.634 124.805 108.37C124.805 108.105 124.805 108.37 124.184 107.751C123.044 106.807 122.16 105.592 121.614 104.22C121.614 104.22 120.373 103.425 120.195 103.072H120.727C120.727 103.072 120.018 101.924 120.727 101.924C121.436 101.924 120.018 101.924 120.727 102.807C121.436 103.69 121.702 104.043 121.259 103.601C120.816 103.16 119.752 102.365 120.461 102.542C121.17 102.718 120.461 101.306 121.525 100.776C122.589 100.246 121.525 101.394 121.968 100.776C122.411 100.158 121.968 100.776 122.589 99.8928V99.363C122.589 99.363 123.475 98.7449 122.589 98.7449C121.702 98.7449 123.475 97.8619 123.741 98.7449C123.741 98.7449 123.741 98.1268 123.741 97.7736C123.741 97.2438 124.45 97.2438 124.45 96.6258C124.45 96.0077 125.957 95.4779 126.489 95.5662C126.745 95.0284 127.143 94.5704 127.641 94.2417C127.641 94.2417 127.641 94.2417 128.351 93.6236C129.06 93.0055 129.148 93.6236 129.592 93.6236C130.035 93.6236 129.592 93.0938 129.592 92.9172C129.592 92.7406 130.655 91.7693 131.364 91.5927C132.074 91.4161 130.833 92.2991 131.364 91.5927C131.896 90.8863 131.985 90.7097 133.049 90.0916C133.049 90.0916 133.581 90.0916 133.935 89.4735C134.467 89.4735 134.29 88.8554 133.935 89.4735C133.403 89.4735 134.999 90.3565 134.999 90.0033C136.329 91.3278 137.747 92.1225 138.19 93.0938C138.633 94.0651 138.722 93.0938 138.722 93.0938C138.722 93.0938 138.722 93.0938 138.279 93.0938C137.747 92.564 139.342 93.0938 140.229 94.1534H140.849C141.47 94.6832 140.849 94.6832 140.849 94.7715C141.091 95.0446 141.395 95.2565 141.736 95.3896V95.9194C141.736 95.9194 141.736 95.9194 142.268 95.9194L142.888 96.4492C142.888 96.4492 142.888 96.0077 142.356 95.8311H143.066C143.066 95.8311 143.066 96.3609 143.775 96.6258C144.484 96.8906 143.775 96.6258 144.307 96.6258C144.838 96.6258 144.75 96.6258 144.307 96.6258C144.307 96.6258 144.307 96.6258 144.838 97.2438C145.37 97.8619 144.838 97.2438 145.459 97.2438L145.991 97.7736C145.991 97.7736 146.877 98.3917 147.055 98.3917C147.232 98.3917 147.586 98.9215 147.852 99.1864C148.121 99.5497 148.491 99.8261 148.916 99.9811C149.123 100.253 149.398 100.467 149.714 100.599C149.714 101.041 149.714 101.217 149.714 101.482C149.714 101.747 150.6 101.482 150.512 101.482C150.423 101.482 152.373 102.718 152.905 103.513C153.437 104.308 152.905 103.513 153.348 103.513C153.792 103.513 156.096 105.279 156.628 106.427C156.628 106.427 156.628 106.427 157.16 106.427C157.692 106.427 157.16 106.427 157.16 105.809C157.992 106.237 158.695 106.877 159.199 107.663C159.199 107.663 159.199 108.458 159.731 108.634C159.731 108.634 160.263 108.634 160.528 108.634C161.149 108.634 162.035 108.634 162.301 109.517V113.756C162.301 113.756 163.011 113.756 162.833 113.756C162.656 113.756 163.808 115.08 163.72 115.522C165.743 116.133 167.554 117.295 168.95 118.877C168.95 119.407 169.482 118.877 169.659 118.877C169.836 118.877 169.659 119.584 168.95 119.495C168.241 119.407 170.013 119.495 170.457 120.113C170.9 120.731 170.013 120.113 170.457 120.113C170.9 120.113 170.989 120.996 171.52 120.731C172.052 120.467 171.077 121.173 170.811 121.261H171.343C171.343 122.144 169.57 121.261 169.393 122.233H169.836C169.836 122.939 168.506 122.233 169.127 122.762C169.747 123.292 170.545 122.762 170.368 122.144C170.191 121.526 171.698 121.526 172.407 122.144C173.116 122.762 171.786 121.614 171.52 122.144C171.254 122.674 172.407 122.144 172.584 123.027C172.761 123.91 173.116 122.409 173.471 122.586C173.825 122.762 172.761 122.586 173.471 123.292C174.18 123.999 174.446 123.292 174.18 123.292C173.914 123.292 174.18 123.999 175.243 123.91C176.307 123.822 173.825 123.91 174.18 124.97C174.534 126.029 175.421 124.97 175.687 124.352C175.953 123.734 175.687 124.97 175.155 125.058C174.623 125.146 176.573 125.058 175.953 126.029V126.824C175.953 126.824 177.282 127.354 176.75 127.884C176.219 128.414 177.46 128.59 177.637 127.884C177.814 127.177 176.839 127.884 177.194 126.912C177.194 127.619 177.814 127.442 178.169 127.619C178.169 127.619 178.612 127.619 178.966 127.619C179.676 128.06 178.966 128.325 178.966 128.855H178.257C178.257 128.855 178.257 129.385 178.257 129.561L179.587 129.12V129.65H178.878C178.878 129.65 178.878 130.356 178.878 130.798C178.878 131.239 180.03 130.798 179.853 130.798C179.676 130.798 179.853 131.504 179.853 131.504C179.853 131.504 179.853 131.504 180.651 131.504C181.449 131.504 180.651 132.652 180.651 133.27H179.764C178.966 133.27 179.764 133.8 178.966 133.976C179.176 134.207 179.457 134.362 179.764 134.418C179.764 133.182 181.271 134.418 181.714 133.535C182.512 134.241 180.651 135.389 182.335 135.389C182.335 135.389 183.133 135.389 182.335 134.771C181.537 134.153 183.221 134.771 183.487 135.389C183.753 136.007 183.487 136.449 182.424 136.096C181.36 135.742 182.424 135.566 182.424 135.566C182.424 135.566 181.803 136.007 182.424 136.537C183.044 137.067 183.133 137.243 183.399 136.537C183.665 135.831 182.955 136.537 183.399 136.007C183.842 135.477 183.399 137.067 184.462 136.802C184.403 136.744 184.357 136.676 184.325 136.6C184.293 136.524 184.276 136.443 184.276 136.36C184.276 136.278 184.293 136.197 184.325 136.121C184.357 136.045 184.403 135.977 184.462 135.919H184.994C185.438 136.802 185.526 135.919 186.058 136.537V137.332C185.526 137.332 185.349 136.096 184.817 136.714C184.285 137.332 185.615 137.155 185.881 137.685H185.438C185.438 137.685 185.438 138.656 185.969 139.009C186.501 139.363 185.969 139.009 186.501 139.009C187.033 139.009 187.565 139.716 187.92 140.246C188.274 140.775 188.629 141.129 187.92 140.952C187.21 140.775 187.122 139.363 186.501 139.451C185.881 139.539 186.058 138.745 185.438 139.451C184.817 140.157 185.438 140.422 185.438 140.775C185.438 141.129 185.438 140.775 185.969 140.775C186.501 140.775 185.969 140.334 186.413 140.069C186.861 140.694 187.475 141.183 188.185 141.482C188.185 141.482 188.185 142.012 187.654 141.482C188.407 142.243 189.089 143.07 189.692 143.954C189.692 143.071 190.49 144.749 190.49 143.954C190.49 143.16 190.49 142.806 190.49 142.895C190.49 142.895 190.49 143.689 191.111 143.778C191.731 143.866 190.49 143.778 190.136 143.778C189.781 143.778 190.136 143.778 190.136 144.484L191.909 145.985C191.909 146.956 193.504 147.928 193.947 148.811C194.391 149.694 193.947 148.811 193.947 149.694C193.947 150.577 193.947 149.076 194.391 149.694C194.391 149.694 194.922 151.283 195.454 151.283H195.011C195.011 151.283 195.454 152.254 195.72 152.784V152.343C196.163 153.226 196.252 153.932 196.695 154.815V155.257C196.695 155.257 196.695 155.698 196.695 155.963L195.809 154.727C195.743 154.302 195.559 153.904 195.277 153.579V154.109C195.277 154.109 195.277 154.109 194.745 154.109L194.125 153.049C194.125 153.049 193.681 152.608 193.416 151.989C193.15 151.371 192.618 150.842 192.263 150.135C192.695 150.323 193.064 150.629 193.327 151.018C193.327 150.488 193.327 150.488 193.327 149.959C192.88 149.898 192.471 149.679 192.174 149.34C192.174 148.899 191.465 149.34 191.111 148.458C190.756 147.575 189.338 146.427 188.717 145.632C187.92 145.632 187.299 144.396 186.501 144.043C185.703 143.689 184.374 142.188 184.374 141.305C182.601 139.938 180.968 138.4 179.498 136.714H180.119C179.587 136.714 180.119 136.714 180.119 136.007C180.119 135.301 179.321 136.007 178.878 136.007C178.303 134.983 177.348 134.222 176.219 133.888C175.066 133.888 174.712 132.475 174.002 131.592C173.293 130.709 174.002 130.974 174.002 130.709C174.002 130.444 172.85 130.709 171.964 130.003C171.364 129.424 170.882 128.734 170.545 127.972C168.063 126.736 166.645 124.44 164.429 122.851V122.409C161.947 121.173 160.44 118.259 158.667 116.935H159.287C159.287 116.317 158.046 115.875 157.869 116.405C157.692 116.935 160.351 115.963 160.351 115.345C160.351 114.727 159.642 114.815 159.199 114.462C158.602 113.522 157.853 112.686 156.983 111.99C156.983 111.99 156.983 111.99 156.983 111.548C156.983 111.107 155.83 110.136 155.742 110.93C155.033 109.606 153.348 108.634 152.639 107.31C152.639 107.31 152.639 107.31 152.196 107.31C151.484 106.352 150.65 105.492 149.714 104.749C149.714 104.749 146.877 101.835 145.459 100.599C144.041 99.363 140.229 96.3609 137.658 94.5949C137.175 94.3297 136.728 94.0032 136.329 93.6236C135.797 93.6236 135.442 92.8289 135.353 93.0938C134.866 93.521 134.42 93.9942 134.024 94.5066C134.024 94.5066 132.428 96.2726 131.364 97.0673C131.364 97.0673 130.833 98.2151 130.301 98.0385C128.601 99.4748 127.109 101.139 125.869 102.983C125.869 103.425 124.273 102.983 125.337 103.513C125.337 103.513 124.716 104.219 125.337 104.396C125.957 104.573 125.78 104.396 126.046 104.396C126.312 104.396 126.046 106.074 127.198 106.604C128.617 107.133 129.06 108.458 130.478 108.723L136.683 116.317L139.786 119.937C140.465 120.67 141.277 121.269 142.179 121.703C147.838 124.574 153.314 127.789 158.578 131.327C159.376 132.917 159.465 132.917 161.149 133.535C161.149 133.535 162.213 134.153 162.656 133.535L168.684 137.243C168.684 137.243 167.886 137.243 168.241 137.685H168.95C168.95 137.685 169.747 137.685 169.57 137.685C175.066 140.599 179.41 145.102 184.551 148.458C185.615 149.429 187.388 150.4 188.717 151.371C192.038 154.539 195.562 157.488 199.266 160.201C198.327 159.533 197.464 158.763 196.695 157.906Z" fill="white"/>
<path d="M199.265 158.436C199.354 158.525 199.265 159.057 199.265 158.436Z" fill="white"/>
<path d="M191.11 142.188C191.11 142.188 191.908 142.188 192.174 142.986L191.11 142.188Z" fill="white"/>
<path d="M189.07 139.1C189.005 139.01 188.97 138.901 188.97 138.79C188.97 138.679 189.005 138.57 189.07 138.48C189.07 138.48 189.424 138.923 189.07 139.1Z" fill="white"/>
<path d="M184.903 132.832C184.903 132.832 184.372 132.832 184.46 132.211C184.549 131.591 185.258 132.654 184.903 132.832Z" fill="white"/>
<path d="M133.312 90.7995L133.755 90.4449V90.6222L133.312 90.7995Z" fill="white"/>
<path d="M127.552 113.049C127.552 113.049 127.552 113.05 127.552 113.493C127.552 113.936 127.818 113.404 127.552 113.049Z" fill="white"/>
<path d="M137.568 124.354L137.391 124.265L137.923 123.822L137.568 124.354Z" fill="white"/>
<path d="M206.001 65.1912C207.419 68.5466 208.395 73.2264 209.99 76.8467C209.99 76.8467 209.547 76.8467 209.99 77.818C211.83 82.2469 213.024 86.9152 213.536 91.681C213.536 92.6523 214.511 93.447 214.688 94.4183C214.688 94.4183 215.397 96.0077 215.752 96.2726C216.107 96.5375 215.752 96.7141 215.752 97.2439H216.373C217.879 98.3035 217.348 100.688 218.5 102.454C220.117 105.771 221.508 109.193 222.666 112.696C222.666 112.696 222.046 112.696 221.957 112.696C221.868 112.696 223.021 113.756 223.464 114.639C223.907 115.522 224.528 116.14 224.528 117.288C225.414 117.818 224.528 118.612 225.503 118.966V119.672C226.478 119.672 225.503 120.996 226.035 121.526C226.478 122.056 226.035 122.586 226.478 123.116C227.187 124.352 226.921 125.323 227.63 125.058C228.339 124.793 226.921 123.822 226.389 125.058C228.368 129.427 229.998 133.944 231.265 138.568C231.265 139.186 231.265 139.539 231.265 139.804C231.265 140.069 231.974 141.482 232.506 141.747C233.038 142.012 232.506 141.747 232.506 142.365C232.506 142.983 233.57 143.071 233.57 144.043C233.57 145.014 232.949 144.043 232.683 144.043C232.417 144.043 233.747 145.72 234.279 146.515C234.811 147.31 234.279 146.515 233.747 146.515C233.215 146.515 234.19 148.369 234.811 149.164H234.279C234.279 150.665 235.342 149.164 235.431 150.577C235.431 150.577 235.431 150.577 234.899 150.577C234.367 150.577 236.317 153.402 236.938 154.462C237.261 155.795 237.706 157.095 238.268 158.347C238.268 158.877 237.293 158.347 237.824 159.76C238.622 159.76 238.888 161.879 239.509 160.819C239.599 162.105 239.929 163.363 240.484 164.528C240.041 164.087 239.686 165.411 239.331 164.528V165.411C239.331 165.411 239.331 164.616 238.888 164.97C239.287 165.671 239.613 166.41 239.863 167.177C240.572 167.883 241.725 168.413 242.257 169.826C241.725 169.208 241.547 170.444 241.282 169.826L243.32 171.327C243.32 171.857 242.7 171.327 243.32 172.298C243.941 173.27 243.32 172.298 243.941 172.298C244.561 172.298 244.739 174.241 243.941 174.594C243.941 173.888 243.143 174.947 243.941 174.594C243.941 175.301 244.473 175.389 244.739 176.272C244.739 176.802 245.536 177.861 245.714 177.067C246.351 177.617 246.788 178.362 246.955 179.186C246.955 179.186 246.955 179.186 246.334 179.186C247.295 180.327 248.019 181.648 248.462 183.071C248.462 183.071 247.664 182.364 247.841 182.1C247.99 183.357 248.349 184.581 248.905 185.72C248.905 186.338 249.348 186.956 249.525 187.486C249.507 187.75 249.507 188.016 249.525 188.281C249.525 188.281 249.525 188.81 248.994 188.281C248.462 187.751 248.994 188.281 249.525 188.281V188.722L250.235 189.428C250.235 189.428 250.235 189.428 250.235 189.87C250.235 190.311 250.235 190.488 250.235 191.106C250.235 191.724 250.235 191.106 250.235 190.576C250.316 191.398 250.316 192.227 250.235 193.049V194.462C250.678 194.462 249.791 194.462 249.703 194.462V194.903V194.373C249.703 193.932 248.816 193.932 248.462 193.314C248.107 192.696 250.235 194.02 249.791 194.108C249.348 194.197 249.791 194.108 249.082 194.108C248.373 194.108 248.462 194.108 247.398 193.225C247.398 193.225 247.398 192.607 246.866 192.166C246.334 191.724 246.866 192.166 245.891 192.166C245.891 192.872 244.561 190.753 245.271 192.166C245.271 191.459 243.054 190.047 243.232 189.517V189.075C242.7 189.075 242.345 189.075 241.813 188.545C241.813 188.545 240.484 187.221 239.952 187.309C239.139 186.589 238.37 185.823 237.647 185.013C236.895 184.655 236.207 184.178 235.608 183.601C235.608 183.601 235.608 183.601 236.052 183.601C235.79 183.289 235.455 183.046 235.076 182.894C234.694 182.369 234.279 181.868 233.835 181.393C233.126 181.393 233.215 181.393 233.038 181.393C232.86 181.393 230.999 180.245 230.467 179.362C229.935 178.479 231.531 179.892 231.087 179.362C230.644 178.833 229.669 178.744 228.783 177.95V178.391C228.783 177.861 227.187 177.508 227.453 177.331C227.719 177.155 226.301 176.448 226.301 176.713C224.613 175.592 222.986 174.384 221.425 173.093C221.425 173.093 220.539 172.563 220.627 173.093C220.716 173.623 221.248 173.093 221.337 173.535C220.805 173.535 220.45 172.916 221.337 173.005C220.184 172.122 219.918 173.005 218.411 171.592L217.525 171.062C216.638 170.179 217.525 170.444 217.525 170.267L216.373 168.943C216.331 168.68 216.331 168.412 216.373 168.148C216.373 168.678 216.373 167.618 216.373 167.442C216.373 167.442 216.373 166.647 216.373 166.294C216.278 166.701 216.278 167.124 216.373 167.53L215.841 166.382C215.841 166.382 215.841 165.411 215.841 164.97C215.841 164.528 215.841 164.44 215.841 164.263C215.841 164.087 215.841 163.38 215.841 163.733C215.818 163.968 215.818 164.205 215.841 164.44C215.841 164.44 215.841 164.44 215.841 163.468C215.841 162.497 215.841 163.468 215.309 162.585V163.115V162.144C215.309 162.144 214.777 160.731 214.511 160.555C214.245 160.378 214.511 159.495 214.068 159.053C213.94 158.427 213.7 157.829 213.359 157.287C213.208 156.822 213 156.377 212.738 155.963C212.738 155.08 213.27 155.433 212.738 154.638C212.206 153.844 211.94 153.579 211.94 153.932C211.94 152.431 210.611 150.93 210.433 149.517C209.543 147.554 208.831 145.515 208.306 143.424V142.718C208.306 142.718 208.306 142.718 208.306 143.424C207.681 142.229 207.233 140.951 206.976 139.628C206.976 139.628 206.976 138.656 206.976 138.038V134.948C206.976 134.948 206.267 134.948 206.267 134.153C205.603 133.522 205.115 132.732 204.849 131.857V131.063C204.849 131.063 204.14 130.268 204.228 131.063C204.228 129.65 203.696 128.855 204.228 128.237C202.387 125.895 201.004 123.229 200.151 120.378C200.151 119.584 199.53 120.378 199.53 119.584C199.53 118.789 199.53 118.877 200.417 119.584C200.417 118.524 199.441 118.436 199.087 117.818C198.732 117.2 199.53 118.259 199.087 118.259C198.644 118.259 199.087 116.758 198.289 116.846C197.491 116.935 198.91 116.846 199.175 116.846V116.228C199.175 115.345 200.86 117.641 201.392 116.228V115.698C201.392 114.992 202.544 117.023 202.278 115.698C202.012 114.374 200.771 114.904 200.682 115.698C200.151 114.374 199.176 115.698 198.732 114.021C198.289 112.343 199.264 115.169 199.619 114.727C199.973 114.286 198.91 113.491 198.821 112.873C198.821 113.579 198.112 112.873 197.846 112.873C197.58 112.873 198.555 112.873 197.846 112.166C197.137 111.46 196.871 111.283 196.959 112.166C197.048 113.049 196.959 111.107 196.073 110.665C195.187 110.224 197.58 111.372 197.491 110.665C197.048 110.665 196.339 109.429 195.807 110.665C195.807 110.136 195.807 109.959 196.605 110.665C197.403 111.372 195.187 109.429 196.073 108.899H195.541C195.541 108.899 195.541 108.37 195.541 107.928C195.541 107.487 194.3 106.427 195.098 106.25C195.896 106.074 194.566 104.838 194.211 105.456C193.857 106.074 194.832 106.25 194.211 106.869C194.211 106.162 193.768 105.809 193.414 105.367C193.414 105.367 193.414 104.484 192.793 104.484H192.261C191.729 103.425 192.97 103.955 192.261 102.983L186.943 100.511C186.943 100.511 186.943 99.8928 186.943 99.363H185.524C185.524 98.745 185.524 99.3631 185.524 98.3918L186.233 99.0982C186.233 99.0982 186.765 98.3918 186.233 97.5088C185.702 96.6258 185.17 96.2726 185.17 97.5088C185.17 97.5088 185.17 96.3609 185.17 96.6258C185.17 96.8907 185.17 96.6258 184.372 96.096C183.574 95.5662 184.372 94.5066 184.992 93.8002L185.79 94.5066V93.3587C186.411 94.0651 185.79 92.9172 186.765 93.3587C186.785 93.0514 186.74 92.7434 186.633 92.4545C186.526 92.1655 186.36 91.9021 186.145 91.681C185.524 93.0055 184.726 90.6214 184.017 91.0629C183.574 89.4735 185.79 89.8267 184.017 88.3256C184.017 88.3256 183.131 88.3256 183.485 88.8554C183.485 87.8841 182.599 88.3256 182.865 87.0894C182.865 87.8841 183.485 86.0298 184.106 87.0894C184.726 88.149 184.106 87.7958 184.106 87.9724C184.106 88.149 184.904 87.9724 184.726 86.9128C184.549 85.8532 184.726 85.5 184.106 85.6766C183.485 85.8532 184.106 86.6479 184.106 86.2947C184.106 85.9415 184.106 84.7936 183.663 84.3521C183.22 83.9107 183.663 85.4117 183.131 85.4117V84.5287C183.131 83.116 182.599 84.5287 182.599 82.7628V82.0564C183.131 82.0564 182.599 84.0872 183.308 83.8224C184.017 83.5575 182.865 82.5862 183.308 81.7915V82.4096C183.308 82.4096 184.283 81.6149 183.308 80.3787C182.333 79.1425 183.308 80.3787 182.776 80.3787C182.776 78.8776 182.333 78.5244 182.244 77.5531C182.156 76.5818 182.244 75.9637 182.776 76.935C183.308 77.9063 182.776 79.4957 182.776 79.9372C182.776 80.3787 182.776 81.0851 183.397 81.35C183.397 80.2021 184.017 80.2021 184.372 79.9372C184.436 79.6761 184.436 79.4036 184.372 79.1425C184.372 79.1425 184.372 79.1425 183.574 79.1425C183.656 78.0365 183.409 76.931 182.865 75.9637C182.865 75.5222 183.397 75.9637 183.485 75.9637C183.485 74.4626 183.485 72.7849 183.485 71.3721C183.042 72.3434 183.485 69.7827 182.865 70.4891C182.244 71.1955 182.422 71.9902 182.156 71.5487C182.156 71.5487 182.156 70.5774 182.156 69.7827C182.156 71.5487 182.776 69.7827 183.22 70.3125C183.22 69.1646 183.22 70.3125 183.22 69.2529C183.119 68.5485 183.215 67.8301 183.496 67.1762C183.778 66.5222 184.234 65.9577 184.815 65.5444C186.499 64.9263 188.538 64.3965 189.691 64.0433C190.843 63.6901 189.691 64.0433 190.754 64.0433C191.818 64.0433 190.045 64.0433 191.286 64.0433V65.1912C191.286 65.1912 193.502 65.1912 193.768 64.2199C193.972 64.2686 194.185 64.2686 194.389 64.2199C195.218 64.1082 196.025 63.8699 196.782 63.5135H196.25L199.885 62.5422H200.594C200.594 62.5422 201.214 62.5422 201.569 62.5422L199.619 63.4252C200.239 63.4252 198.998 63.4252 199.619 63.4252C199.029 63.4941 198.457 63.6739 197.934 63.955H198.732C198.732 63.955 198.2 63.955 197.934 64.4848C197.669 65.0146 198.555 64.4848 198.555 64.4848L196.782 65.1029C196.782 65.1029 195.984 65.5444 195.009 65.8093C194.034 66.0742 193.148 66.604 191.995 66.8689C192.668 66.1893 193.446 65.6227 194.3 65.1912H192.704C192.29 65.6162 191.812 65.9738 191.286 66.2508C190.488 66.2508 190.577 66.9572 189.425 67.2221C188.272 67.487 185.968 68.37 185.79 69.5178C185.79 70.2242 185.79 71.9019 186.499 73.1381C187.209 74.3743 187.386 77.1999 186.943 78.1712C187.563 81.4383 188.184 84.3521 188.538 87.7075L187.918 87.1777C188.45 87.7958 187.918 87.1777 187.918 88.2373C187.918 87.5309 188.627 88.9437 188.981 89.3852C189.035 90.9867 189.526 92.5434 190.4 93.8885C191.375 95.0364 191.198 96.6258 191.641 98.3035C191.488 98.671 191.488 99.0838 191.641 99.4513C192.616 100.069 192.704 100.599 193.502 101.747C193.894 102.893 194.161 104.077 194.3 105.279C196.028 108.732 197.509 112.303 198.732 115.963C199.84 119.58 200.699 123.268 201.303 127.001H200.505C200.505 127.972 201.392 129.12 201.746 128.767C202.101 128.414 202.721 131.063 202.367 131.857C202.012 132.652 202.987 133.005 203.253 133.8C203.52 135.395 203.935 136.962 204.494 138.48V137.95C204.494 137.95 205.115 140.599 205.469 139.716C205.469 141.835 206.976 144.307 207.154 146.427C207.154 146.427 207.154 146.427 207.154 146.868C207.485 148.582 207.96 150.266 208.572 151.901C208.572 151.901 208.572 151.901 208.572 152.343C209.636 155.168 210.167 158.17 211.054 160.731L212.295 164.175C212.605 165.143 213.228 165.982 214.068 166.559C215.937 167.917 217.892 169.155 219.918 170.267C221.425 170.797 222.932 172.387 224.173 172.652C225.414 172.916 225.414 173.358 225.06 173.358C226.301 173.799 227.896 175.389 229.581 176.095H229.137C230.556 177.243 232.063 177.95 233.57 179.097H232.949C233.481 179.716 234.722 179.716 234.722 180.422L239.863 184.219H240.306C241.547 185.808 242.168 187.309 241.991 186.515C241.813 185.72 241.459 185.808 241.991 186.515L242.877 187.662C243.409 188.369 242.877 188.192 242.877 187.662C242.345 186.956 242.345 186.779 241.813 186.073C241.282 185.367 242.7 186.515 241.813 185.19L242.257 185.632C240.838 183.689 241.104 183.512 239.863 182.983C238.622 182.453 239.863 182.983 239.863 182.541L239.243 180.863L238.002 177.596L235.254 171.15L230.29 157.994C227.453 149.164 224.173 140.334 222.134 131.504C222.322 130.691 222.34 129.849 222.188 129.028C222.035 128.208 221.716 127.428 221.248 126.736C221.248 126.736 220.716 125.146 220.007 125.146C219.12 121.703 218.057 118.701 217.082 115.257C217.082 115.787 217.968 115.875 217.702 115.257L217.082 114.727C217.082 114.286 216.461 113.932 216.373 114.727C213.447 105.897 212.472 97.0673 210.167 88.6788C210.167 86.5596 208.926 83.7341 208.306 81.5266C207.863 74.0211 206.356 68.4583 204.671 61.7475L206.001 65.1912Z" fill="white"/>
<path d="M183.31 70.226C183.31 70.226 183.31 70.226 183.31 70.7578C183.227 70.438 183.227 70.1025 183.31 69.7827C183.31 69.7827 183.221 70.1373 183.31 70.226Z" fill="white"/>
<path d="M183.574 75.7873C183.281 75.2396 183.1 74.6393 183.042 74.0213L183.574 75.7873Z" fill="white"/>
<path d="M183.484 81.1736C183.588 81.4294 183.588 81.7155 183.484 81.9714C183.484 81.9714 183.13 81.0849 183.484 81.1736Z" fill="white"/>
<path d="M183.928 92.2992C183.928 92.2992 183.928 93.0939 183.928 93.3588C183.928 93.6237 183.485 92.1226 183.928 92.2992Z" fill="white"/>
<path d="M225.769 177.598L225.326 177.332L225.414 177.243L225.769 177.598Z" fill="white"/>
<path d="M244.297 179.453C244.297 178.922 244.297 179.01 244.297 178.833C244.297 178.656 244.031 178.833 244.297 179.453Z" fill="white"/>
<path d="M236.496 159.142L236.584 159.319L235.964 159.496L236.496 159.142Z" fill="white"/>
<path d="M342.071 447.174C344.819 450.706 340.387 445.497 344.021 449.382C343.204 448.811 342.536 448.054 342.071 447.174Z" fill="white"/>
<path d="M351.999 438.963L354.835 428.013C354.992 426.029 355.731 424.133 356.96 422.563C358.189 420.993 359.855 419.818 361.749 419.184C362.725 419.184 363.966 418.565 364.763 419.184L366.359 421.921L369.462 427.307L375.667 437.726C376.642 439.227 375.046 437.726 377.262 440.993C378.231 442.741 379.358 444.396 380.631 445.938C381.425 446.709 382.491 447.141 383.6 447.141C384.71 447.141 385.775 446.709 386.57 445.938C388.431 444.349 387.634 441.523 386.57 439.581L382.847 433.135L375.489 419.802L373.716 416.535L373.096 414.15C372.653 413.709 373.096 413.267 373.628 412.826C374.241 411.927 375.078 411.201 376.057 410.722C377.036 410.242 378.123 410.024 379.212 410.089H378.237C380.007 410.047 381.772 410.286 383.467 410.795C385.417 411.237 387.368 411.59 389.141 412.12C390.382 412.12 395.7 413.709 397.296 413.797C398.891 413.886 398.448 414.592 400.221 415.298H402.349C403.188 415.472 404.057 415.451 404.887 415.237C405.717 415.022 406.486 414.62 407.135 414.062C407.767 413.351 408.192 412.482 408.364 411.548C408.535 410.615 408.448 409.652 408.11 408.764C407.313 406.733 404.919 406.203 403.146 405.762C401.373 405.32 399.246 404.702 397.207 404.261C397.65 404.261 398.448 404.261 397.828 404.261L387.9 401.877L381.96 400.729C382.222 398.997 382.607 397.285 383.113 395.608C384.676 388.294 383.41 380.662 379.567 374.239C380.01 374.681 380.542 374.946 380.365 374.239C378.351 371.99 376.541 369.567 374.957 366.999C373.03 363.873 370.835 360.918 368.398 358.169C365.827 356.049 365.561 354.107 363.168 352.517L362.193 350.575C360.508 350.045 359.533 346.513 357.495 344.659C355.722 342.716 355.278 341.392 353.683 339.537C350.048 335.122 348.63 332.12 348.098 332.65C347.389 330.708 351.467 336.977 350.403 333.975C339.13 318.859 328.684 303.149 319.112 286.911C318.451 285.734 317.917 284.491 317.516 283.202C316.364 281.701 313.527 277.375 312.286 276.138C312.286 276.668 312.286 274.902 311.399 274.108C309.804 271.105 308.652 271.459 306.879 268.192C307.854 269.251 308.386 269.516 308.297 268.986C305.843 266.162 303.535 263.215 301.383 260.156C301.826 260.156 302.358 261.216 302.535 260.951C299.61 257.949 298.28 254.77 295.798 252.121L296.95 253.004C293.937 247.971 295.178 252.121 292.518 247.883C293.316 248.766 293.227 248.324 293.493 248.412C290.036 245.057 285.693 238.876 282.59 235.344C279.399 231.371 276.296 227.044 272.485 222.894C271.332 221.216 273.726 222.894 270.18 218.744C269.559 219.45 264.329 211.503 265.482 214.682C262.802 210.371 260.603 205.782 258.922 200.996C259.897 202.85 258.922 198.523 260.429 202.055L259.986 199.23C260.429 199.23 260.872 202.055 260.961 200.996C261.049 199.936 258.124 194.02 257.681 192.166C255.488 188.539 253.62 184.727 252.096 180.775C253.249 183.247 252.096 179.009 253.071 180.775L248.994 173.711C248.373 171.945 249.437 173.093 248.373 170.532C248.373 170.532 247.664 169.649 247.221 168.943C246.144 166.088 245.372 163.129 244.916 160.113C244.916 159.23 246.069 163.027 245.625 160.996L242.966 154.197C242.257 151.99 240.395 147.839 240.839 150.312C241.282 152.784 240.839 149.605 241.636 151.99C240.195 149.145 238.98 146.193 238.002 143.16C238.534 144.219 238.711 144.043 239.066 144.484C236.938 140.157 235.077 135.654 233.127 130.444C233.127 130.444 234.368 132.21 234.456 132.917C232.772 126.294 229.758 119.672 228.694 114.021C228.694 114.904 228.694 114.639 228.694 114.551C227.808 111.46 228.251 111.46 227.453 109.429C227.105 107.853 226.6 106.315 225.946 104.838C225.414 103.778 225.946 104.22 226.478 106.074C225.326 103.16 221.514 91.5044 219.83 84.6171C218.935 82.8286 218.193 80.9676 217.614 79.0542L218.146 79.584C218.146 78.0829 216.55 74.286 216.727 73.9328C215.309 70.7541 220.894 86.7363 219.298 82.3213C219.298 80.9968 216.816 76.1403 217.614 77.0233C216.639 73.8445 215.398 70.9307 214.777 68.1934C214.777 69.0764 216.018 70.5775 215.22 68.1934C213.891 63.6901 214.689 66.9572 213.536 63.3369V61.3943C213.536 61.3943 212.384 57.4209 212.561 59.1868C212.315 58.0472 211.989 56.926 211.586 55.8315C211.054 54.507 210.522 53.8889 210.788 53.8006H211.409C210.345 52.4761 209.37 53.0059 207.952 53.8006C206.533 54.5953 207.242 53.8006 207.331 53.8006C207.42 53.8006 202.722 55.0368 200.594 56.0964C196.428 56.9794 190.134 58.9219 188.184 59.0985C186.234 59.2751 181.801 60.5996 179.763 62.6305C180.1 62.204 180.487 61.8187 180.915 61.4826C180.279 61.7918 179.729 62.2511 179.312 62.8204C178.894 63.3898 178.623 64.0521 178.522 64.7497C178.522 63.4252 177.458 71.1073 176.483 72.2552C174.001 69.6945 174.887 70.9307 174.621 70.9307C173.469 69.4296 172.051 65.6327 170.898 64.3965C169.746 63.1603 168.062 62.9837 166.289 63.6901C167.264 62.8954 170.1 62.5422 167.884 62.7188C165.668 62.8954 162.92 65.5444 159.02 68.0168H160.172C158.311 68.9881 154.676 72.2551 154.854 71.7254C153.701 72.7849 150.599 75.2573 151.131 75.169C149.624 76.4935 147.939 78.0829 146.344 79.7606C144.563 81.6859 142.905 83.7208 141.38 85.8533L139.429 84.5288L137.745 82.8511C137.073 82.3791 136.361 81.9655 135.618 81.6149C135.049 81.4342 134.443 81.3961 133.856 81.5039C133.268 81.6117 132.717 81.8621 132.249 82.233L129.856 84.5288C131.363 83.4692 131.717 82.6745 132.249 82.4096C131.901 82.6461 131.6 82.9456 131.363 83.2926C129.59 84.882 128.172 86.2065 129.679 84.5288C125.601 88.0607 125.867 88.5905 120.814 93.3587C120.814 93.3587 120.814 93.3587 119.041 94.7715L116.382 97.5088C113.102 100.511 114.343 99.0099 114.166 99.0099C112.216 100.511 110.797 102.895 111.418 103.778C111.56 104.642 111.962 105.442 112.57 106.074C111.329 104.573 113.9 107.31 114.875 108.016L113.989 107.31L117.357 110.489C117.357 110.489 115.141 108.193 114.077 107.133L117.623 110.312C117.623 110.312 117.623 110.312 119.13 111.902L122.853 115.61L123.474 116.317H120.548C120.548 116.317 115.407 115.169 117.8 115.61C119.105 115.969 120.44 116.206 121.789 116.317L116.027 114.639C113.811 114.021 116.027 115.257 112.393 113.668L114.52 114.286L110.797 112.785C109.775 112.568 108.718 112.568 107.695 112.785C106.665 113.042 105.719 113.559 104.947 114.286C103.268 115.373 101.695 116.615 100.249 117.994C98.4684 119.621 96.9707 121.531 95.8165 123.645C94.7913 125.269 93.9865 127.021 93.4231 128.855C92.2707 131.769 92.3593 129.65 91.6502 133.093C90.941 136.537 91.6502 137.597 91.6502 136.537C91.6502 138.833 94.6641 140.599 97.0575 142.365C99.5155 144.002 101.883 145.771 104.149 147.663C104.798 147.963 105.421 148.317 106.011 148.722C112.925 153.844 120.991 159.053 126.221 163.468C127.994 164.528 128.083 165.146 128.881 165.234C129.679 165.323 128.881 165.234 127.197 163.468C131.451 166.382 137.834 170.886 140.05 172.74C138.898 171.857 140.05 172.74 140.848 172.74C140.316 172.74 143.33 175.124 145.723 176.713H146.255L147.585 178.038C148.918 178.456 150.133 179.182 151.131 180.157C151.131 180.157 151.131 180.157 151.574 180.863C154.661 182.565 157.623 184.483 160.438 186.603L162.3 188.457C163.452 189.252 165.491 190.4 163.629 188.899C166.548 191.019 169.331 193.32 171.962 195.786C181.875 201.607 191.275 208.253 200.062 215.653H199.619C201.746 217.684 201.126 216.183 202.633 217.684C201.658 217.684 203.963 219.627 201.924 218.391C204.02 220.206 206.275 221.831 208.661 223.247C209.193 223.247 206.799 222.011 207.508 222.011C208.217 222.011 211.763 226.073 212.65 226.161C213.536 226.249 212.65 226.779 211.763 226.161L213.891 227.75C215.841 230.399 207.774 223.777 209.636 226.603L211.497 228.104C212.738 230.134 206.356 224.395 210.7 228.545C212.827 230.046 214.954 231.017 213.447 229.251C217.525 232.872 216.284 229.958 220.45 234.108C221.337 235.432 216.993 230.841 217.525 231.989C218.057 233.137 221.691 235.609 223.287 237.552C221.514 235.432 223.287 236.669 224.883 237.552C226.478 238.435 223.11 236.58 226.035 239.671C226.744 239.671 229.581 242.585 227.453 239.671C229.049 240.289 230.379 243.026 232.329 244.351C232.861 245.763 228.517 241.967 231.442 245.587C231.442 244.704 235.786 249.384 234.722 247.088C235.786 248.589 235.609 248.942 234.722 248.148C236.229 250.355 239.598 252.386 239.332 253.71H240.307C240.307 254.417 241.282 255.388 241.902 256.624C242.523 257.86 246.955 262.099 246.246 262.452C245.537 262.805 249.614 267.309 248.994 265.278C248.373 263.247 246.423 262.54 245.98 260.598C247.077 262.523 248.451 264.278 250.058 265.807V266.249C250.767 267.044 252.096 269.251 252.806 269.604C252.185 268.986 252.274 269.604 252.806 270.311L253.869 271.017C256.529 274.637 253.869 272.342 256.351 275.874L254.224 273.313C254.898 274.586 255.638 275.824 256.44 277.021C257.238 277.463 258.479 278.434 259.099 278.876C260.695 280.818 259.099 280.024 261.05 281.878L257.858 280.818C257.415 280.818 258.479 283.026 260.34 285.763C262.202 288.5 263.886 289.825 262.202 286.911C263.177 288.235 264.241 290.355 263.266 289.383C265.482 292.474 263.266 288.765 265.393 291.326L268.939 298.478L266.723 296.094L267.964 297.948C265.925 295.829 268.496 299.361 267.077 298.39C267.98 299.737 268.957 301.034 270.003 302.275C268.23 298.037 273.814 305.719 273.726 304.218C277.36 309.251 274.258 308.544 278.867 313.048C278.424 312.076 280.64 314.284 278.246 311.193C280.374 314.372 280.374 312.871 282.59 316.844C280.463 314.195 283.92 320.288 280.906 316.844C280.906 316.844 279.576 314.46 279.044 313.931C279.665 315.432 278.247 313.931 280.374 317.374C281.792 319.317 283.654 321.966 283.742 321.436C283.831 320.906 281.615 318.346 282.856 319.405C285.604 323.29 285.515 324.35 287.2 325.498C285.515 323.025 285.515 322.142 285.781 322.054L287.82 324.88L287.2 324.438C290.125 329.295 288.529 325.586 291.455 330.178L292.43 332.562C291.277 331.767 288.263 325.851 288.175 327.087C290.036 330.089 291.011 330.796 292.696 333.71L291.189 331.767C292.049 334.158 293.341 336.373 295 338.301C296.596 340.42 295.621 338.743 295.887 338.301C298.989 343.158 300.053 344.57 301.826 347.838C301.028 347.396 304.751 353.665 302.446 350.31C300.883 346.508 298.795 342.941 296.241 339.714C296.862 341.833 293.937 335.829 292.696 335.211C295.178 339.008 294.468 339.273 294.557 340.067C295.132 340.981 295.753 341.865 296.419 342.716C297.039 342.716 296.419 341.568 296.419 341.303C298.989 345.718 301.383 350.133 302.978 352.341C304.574 354.548 302.978 353.665 302.092 351.811C304.84 357.27 307.296 362.87 309.449 368.588C308.563 364.879 311.931 374.416 311.399 371.943C310.868 369.471 309.804 366.38 310.69 367.882C311.577 369.383 310.69 367.882 310.69 368.765C310.69 369.648 311.577 372.473 312.995 374.504C310.69 369.471 311.931 373.709 311.134 373.003C312.995 376.535 311.134 373.003 312.375 376.535C313.616 380.067 316.275 384.394 318.048 388.455C319.821 392.517 323.455 401.347 325.671 406.115C326.824 408.323 325.671 407.086 327.09 409.382C328.508 411.678 325.937 407.351 328.774 411.148C329.483 412.384 334.979 417.506 336.574 417.506H335.156C335.867 417.94 336.607 418.323 337.372 418.654C337.372 418.654 338.259 419.36 336.929 418.654C339.665 420.208 342.674 421.226 345.793 421.656L343.755 421.126C345.116 421.262 346.439 421.651 347.655 422.274V422.804V423.775L347.123 425.453L345.173 432.517L344.464 435.607C343.94 436.796 343.553 438.04 343.311 439.316L345.262 431.192C345.882 428.985 344.73 433.665 345.262 432.34C345.793 431.016 346.946 426.336 347.035 425.453L346.148 428.896C346.148 429.426 346.148 426.601 346.857 425.188C346.857 426.159 346.148 427.572 346.148 427.749L346.857 424.746L347.3 423.069C347.3 422.539 346.68 423.069 346.059 422.186C347.921 422.98 344.996 421.656 346.059 422.186C343.536 421.993 341.072 421.334 338.791 420.243C334.992 418.489 331.563 416.032 328.685 413.003C330.507 414.598 332.432 416.072 334.447 417.418C332.769 416.199 331.224 414.808 329.837 413.267C328.12 411.944 326.65 410.33 325.494 408.499C323.935 406.342 322.654 403.999 321.682 401.524L312.818 382.009C310.403 377.572 308.243 373.003 306.347 368.323C303.776 361.347 299.432 353.93 298.014 350.663C291.455 339.537 284.186 330.619 276.828 319.229L278.601 320.818C276.917 319.052 277.892 319.317 276.562 317.374C277.715 319.935 274.257 314.99 273.016 313.754C269.675 308.333 265.973 303.141 261.936 298.213C258.143 293.325 254.678 288.193 251.565 282.849C251.127 281.557 250.5 280.337 249.703 279.229C247.237 276.414 244.929 273.467 242.789 270.399L234.456 259.097C224.554 247.986 213.891 237.571 202.544 227.927L202.012 226.867C190.4 218.037 176.394 206.294 165.934 199.053H167.352C164.25 196.492 159.995 193.755 160.527 194.726C157.424 192.166 152.372 188.987 150.687 187.044C147.496 184.572 146.521 184.307 143.773 182.276C137.479 177.243 134.909 175.477 128.792 170.886L130.299 172.033C131.008 172.033 131.274 172.033 129.767 171.15C128.26 170.267 121.435 164.705 123.296 166.912C117.002 161.702 107.961 155.521 101.844 150.488C102.288 150.488 100.692 149.782 99.8941 149.341C97.0575 147.045 94.1322 145.102 91.0297 142.453C90.0907 141.51 89.4418 140.319 89.1591 139.02C88.8764 137.722 88.9718 136.37 89.4341 135.124C89.6561 133.508 90.0119 131.914 90.4978 130.356C90.4978 129.208 90.4978 132.122 91.0297 129.297C91.5615 126.471 91.0297 129.297 91.5615 127.089C93.792 121.477 97.6106 116.63 102.553 113.138C103.718 112.048 105.157 111.293 106.717 110.951C108.278 110.609 109.902 110.693 111.418 111.195L115.318 112.696L117.002 113.226H117.623C117.623 113.226 118.598 113.226 118.155 113.226L117.446 112.52L112.659 108.105C111.597 107.262 110.722 106.21 110.088 105.014C109.699 104.343 109.494 103.582 109.494 102.807C109.494 102.032 109.699 101.27 110.088 100.599C111.877 98.6322 113.868 96.8566 116.027 95.3013L126.399 85.6767L131.54 80.9085C132.083 80.4021 132.726 80.0148 133.429 79.7714C134.131 79.5281 134.877 79.4342 135.618 79.4957C136.934 79.745 138.177 80.2885 139.252 81.0851L140.671 81.9681L142.621 79.7606C143.507 78.701 144.482 77.5531 145.457 76.5818L150.687 71.2839C151.84 70.3126 154.942 67.7519 154.233 68.5466C156.687 66.4962 159.294 64.6365 162.034 62.9837C163.716 61.8748 165.533 60.9846 167.441 60.3347C168.071 60.1757 168.727 60.1486 169.368 60.255C170.008 60.3614 170.62 60.599 171.164 60.9528C172.04 61.6027 172.817 62.376 173.469 63.2486C173.09 62.6687 172.643 62.1353 172.139 61.6592C173.083 62.7785 173.859 64.0276 174.444 65.3678C174.444 65.8093 175.065 66.4274 175.33 66.4274V64.838C175.621 62.8395 176.591 61.0008 178.078 59.6283C177.364 60.2854 176.817 61.1027 176.483 62.0124C177.329 60.6486 178.483 59.4998 179.852 58.6568C181.221 57.8139 182.769 57.3001 184.372 57.156C185.347 56.6262 185.879 57.156 184.372 57.156L195.807 53.4474L201.835 51.5931C204.012 50.8073 206.273 50.274 208.572 50.0037C209.406 49.9724 210.236 50.1404 210.991 50.4937C211.747 50.847 212.407 51.3754 212.916 52.0346C213.695 53.076 214.294 54.24 214.689 55.4783L216.727 61.5709L220.982 74.0211C224.173 85.6767 220.007 75.0807 223.376 83.999C223.376 84.7937 223.819 83.999 223.376 84.6171C224.705 88.149 224.262 90.3565 225.414 92.7406C225.414 91.5927 226.212 94.2417 226.478 94.2417C227.767 98.9047 229.366 103.477 231.265 107.928H230.822C233.57 114.286 235.609 121.968 238.179 127.177C244.384 144.837 250.944 162.497 257.238 179.362C260.429 187.751 263.62 197.022 266.723 204.704C271.13 212.337 276.394 219.447 282.413 225.896C293.848 240.201 304.574 254.77 314.768 270.046C324.962 285.322 334.181 300.951 343.843 316.403C346.496 322.046 349.862 327.328 353.86 332.12C353.151 331.414 353.86 332.12 353.86 332.12C354.569 332.827 357.76 337.418 358.913 337.683C362.813 343.158 366.891 348.279 371.057 353.224C375.556 358.751 379.56 364.661 383.024 370.884C381.694 368.853 380.719 368.323 382.138 370.884L383.999 373.268V373.798C384.974 375.475 386.127 377.33 385.506 375.387C387.749 379.893 388.96 384.839 389.052 389.868C389.056 392.391 388.788 394.907 388.254 397.374L387.811 399.228L390.204 399.934L396.587 401.789L402.88 403.731L406.16 404.702C407.981 405.278 409.567 406.424 410.681 407.969C411.258 408.829 411.65 409.799 411.833 410.817C412.016 411.835 411.986 412.88 411.745 413.886C411.386 415.802 410.348 417.525 408.82 418.742C408.01 419.363 407.08 419.809 406.088 420.053C405.096 420.296 404.064 420.331 403.058 420.155C401.855 419.913 400.67 419.588 399.512 419.184L386.836 415.475L380.897 413.709C380.264 413.493 379.589 413.428 378.927 413.52C378.265 413.612 377.634 413.858 377.085 414.239L376.287 414.945C376.287 414.945 376.287 414.945 376.287 415.652L379.478 421.303L386.304 433.665C387.545 435.96 388.786 437.991 390.116 440.552C390.489 441.401 390.682 442.318 390.682 443.245C390.682 444.172 390.489 445.089 390.116 445.938C389.352 447.471 388.015 448.644 386.393 449.205C385.233 449.696 383.946 449.806 382.719 449.521C381.492 449.235 380.388 448.568 379.567 447.616C378.552 446.146 377.635 444.612 376.819 443.024L372.298 434.194L367.777 425.894L365.473 421.744C364.32 419.802 365.472 419.978 363.079 420.331C361.676 420.594 360.372 421.235 359.309 422.184C358.246 423.134 357.465 424.356 357.051 425.718C356.076 428.543 355.367 431.722 354.392 434.548L351.733 443.907C351.245 445.545 350.397 447.053 349.251 448.322L348.541 449.294V450H345.173H348.453C349.162 448.852 350.048 447.881 351.023 446.203C351.579 443.826 351.905 441.401 351.999 438.963Z" fill="white"/>
<path d="M341.894 441.965C341.894 440.994 342.957 438.08 342.425 440.464L341.894 441.965Z" fill="white"/>
<path d="M312.906 375.829C312.733 375.366 312.585 374.894 312.463 374.416C312.924 375.233 313.31 376.09 313.615 376.976C313.467 376.547 313.224 376.155 312.906 375.829Z" fill="white"/>
<path d="M304.838 356.579C306.187 358.71 307.344 360.956 308.296 363.29L304.838 356.579Z" fill="white"/>
<path d="M296.329 338.39C295.532 336.8 295.886 337.153 297.127 339.096C297.127 339.361 296.684 338.919 296.329 338.39Z" fill="white"/>
<path d="M295.089 337.506C294.481 336.579 293.948 335.604 293.494 334.593C293.494 334.593 295.71 337.683 295.089 337.506Z" fill="white"/>
<path d="M272.219 301.569C271.348 300.51 270.605 299.354 270.002 298.125C270.357 299.096 273.016 302.01 272.219 301.569Z" fill="white"/>
<path d="M260.962 285.41L260.075 283.997C259.455 283.026 260.075 283.997 260.962 284.704V285.41Z" fill="white"/>
<path d="M162.476 65.2794L160.703 66.5156L160.88 66.2507L162.476 65.2794Z" fill="white"/>
<path d="M237.382 142.1C238.269 144.131 237.382 143.601 237.382 143.954C237.028 142.188 238.269 144.661 237.382 142.1Z" fill="white"/>
<path d="M270.446 220.16L270.002 219.716L270.712 219.45L270.446 220.16Z" fill="white"/>
</svg>
